<svg width="64" height="64" viewBox="0 0 64 64" fill="none" xmlns="http://www.w3.org/2000/svg">
<g clip-path="url(#clip0)">
<path d="M34.3998 18.835V2C34.3998 1.46957 34.2312 0.960859 33.9312 0.585786C33.6311 0.210714 33.2241 0 32.7998 0L31.1998 0C30.7754 0 30.3685 0.210714 30.0684 0.585786C29.7683 0.960859 29.5998 1.46957 29.5998 2V18.835C30.324 18.2887 31.1539 17.9999 31.9998 17.9999C32.8457 17.9999 33.6755 18.2887 34.3998 18.835ZM19.5538 55.5575C18.6551 54.4313 18.1505 52.9056 18.1505 51.315C18.1505 49.7244 18.6551 48.1987 19.5538 47.0725L20.4118 46H19.1998C17.9267 46 16.7058 45.3679 15.8057 44.2426C14.9055 43.1174 14.3998 41.5913 14.3998 40C14.3998 38.4087 14.9055 36.8826 15.8057 35.7574C16.7058 34.6321 17.9267 34 19.1998 34H20.4118L19.5538 32.9287C18.7062 31.8786 18.202 30.4713 18.1395 28.9816C18.077 27.4919 18.4607 26.0265 19.2158 24.8712C19.9709 23.716 21.0432 22.9538 22.2235 22.7333C23.4038 22.5129 24.6075 22.8499 25.5998 23.6787V20.2188C25.5998 15.6725 22.4618 12 18.5998 12C14.1998 12 12.7998 15.5625 10.5878 19.8913C6.01478 28.7997 2.57394 38.5403 0.387782 48.7663C0.128121 49.9736 -0.00234885 51.2186 -0.000218468 52.4688C-0.000218468 60.125 6.24978 65.6575 12.5248 63.5475L18.4748 61.5638C20.5578 60.8727 22.402 59.3468 23.7248 57.22C22.9738 57.3923 22.2004 57.3308 21.4729 57.0409C20.7455 56.7509 20.0863 56.2415 19.5538 55.5575ZM42.1828 52.7287C42.4826 52.3537 42.651 51.8452 42.651 51.315C42.651 50.7848 42.4826 50.2763 42.1828 49.9012L41.3248 48.8288C39.3088 46.3088 40.7368 42 43.5878 42H44.7998C45.2241 42 45.6311 41.7893 45.9311 41.4142C46.2312 41.0391 46.3998 40.5304 46.3998 40C46.3998 39.4696 46.2312 38.9609 45.9311 38.5858C45.6311 38.2107 45.2241 38 44.7998 38H43.5878C40.7368 38 39.3088 33.6913 41.3248 31.1725L42.1828 30.1C42.4829 29.7249 42.6515 29.2161 42.6515 28.6856C42.6515 28.1551 42.4829 27.6464 42.1828 27.2712C41.8827 26.8961 41.4757 26.6854 41.0513 26.6854C40.6269 26.6854 40.2199 26.8961 39.9198 27.2712L39.0628 28.3438C37.0468 30.8637 33.5998 29.0787 33.5998 25.515V24C33.5998 23.4696 33.4312 22.9609 33.1312 22.5858C32.8311 22.2107 32.4241 22 31.9998 22C31.5754 22 31.1685 22.2107 30.8684 22.5858C30.5683 22.9609 30.3998 23.4696 30.3998 24V25.515C30.3998 29.0787 26.9528 30.8637 24.9368 28.3438L24.0798 27.2712C23.7797 26.8961 23.3727 26.6854 22.9483 26.6854C22.5239 26.6854 22.1169 26.8961 21.8168 27.2712C21.5167 27.6464 21.3481 28.1551 21.3481 28.6856C21.3481 29.2161 21.5167 29.7249 21.8168 30.1L22.6748 31.1725C24.6908 33.6913 23.2628 38 20.4118 38H19.1998C18.7754 38 18.3685 38.2107 18.0684 38.5858C17.7684 38.9609 17.5998 39.4696 17.5998 40C17.5998 40.5304 17.7684 41.0391 18.0684 41.4142C18.3685 41.7893 18.7754 42 19.1998 42H20.4118C23.2628 42 24.6908 46.3088 22.6748 48.8288L21.8168 49.9012C21.6647 50.086 21.5435 50.3067 21.4602 50.5505C21.3769 50.7943 21.3333 51.0564 21.3318 51.3215C21.3303 51.5866 21.371 51.8494 21.4514 52.0947C21.5319 52.34 21.6506 52.5628 21.8006 52.7502C21.9506 52.9376 22.1289 53.0859 22.3252 53.1864C22.5214 53.2869 22.7317 53.3376 22.9438 53.3356C23.1559 53.3336 23.3655 53.2789 23.5605 53.1748C23.7556 53.0706 23.9321 52.919 24.0798 52.7287L24.9368 51.6575C26.9528 49.1375 30.3998 50.9225 30.3998 54.485V56C30.3998 56.5304 30.5683 57.0391 30.8684 57.4142C31.1685 57.7893 31.5754 58 31.9998 58C32.4241 58 32.8311 57.7893 33.1312 57.4142C33.4312 57.0391 33.5998 56.5304 33.5998 56V54.485C33.5998 50.9225 37.0468 49.1375 39.0628 51.6575L39.9198 52.7287C40.0684 52.9145 40.2448 53.0619 40.4389 53.1624C40.633 53.263 40.8411 53.3147 41.0513 53.3147C41.2614 53.3147 41.4695 53.263 41.6637 53.1624C41.8578 53.0619 42.0342 52.9145 42.1828 52.7287ZM28.7998 38C28.4833 38 28.174 37.8827 27.9109 37.6629C27.6477 37.4432 27.4427 37.1308 27.3216 36.7654C27.2005 36.3999 27.1688 35.9978 27.2305 35.6098C27.2923 35.2219 27.4446 34.8655 27.6684 34.5858C27.8922 34.3061 28.1773 34.1156 28.4876 34.0384C28.798 33.9613 29.1197 34.0009 29.4121 34.1522C29.7044 34.3036 29.9543 34.56 30.1301 34.8889C30.3059 35.2178 30.3998 35.6044 30.3998 36C30.3998 36.5304 30.2312 37.0391 29.9312 37.4142C29.6311 37.7893 29.2241 38 28.7998 38ZM35.1998 46C34.8833 46 34.574 45.8827 34.3109 45.6629C34.0477 45.4432 33.8427 45.1308 33.7216 44.7654C33.6005 44.3999 33.5688 43.9978 33.6305 43.6098C33.6923 43.2219 33.8446 42.8655 34.0684 42.5858C34.2922 42.3061 34.5773 42.1156 34.8876 42.0384C35.198 41.9613 35.5197 42.0009 35.8121 42.1522C36.1044 42.3036 36.3543 42.56 36.5301 42.8889C36.7059 43.2178 36.7998 43.6044 36.7998 44C36.7998 44.5304 36.6312 45.0391 36.3312 45.4142C36.0311 45.7893 35.6241 46 35.1998 46ZM63.6118 48.7663C61.4256 38.5403 57.9848 28.7997 53.4118 19.8913C51.1998 15.5625 49.7998 12 45.3998 12C41.5378 12 38.3998 15.6725 38.3998 20.2188V23.6838C39.3921 22.8549 40.5958 22.5179 41.7761 22.7383C42.9564 22.9588 44.0287 23.721 44.7838 24.8762C45.5388 26.0315 45.9226 27.4969 45.8601 28.9866C45.7976 30.4763 45.2934 31.8836 44.4458 32.9338L43.5878 34H44.7998C46.0728 34 47.2937 34.6321 48.1939 35.7574C49.0941 36.8826 49.5998 38.4087 49.5998 40C49.5998 41.5913 49.0941 43.1174 48.1939 44.2426C47.2937 45.3679 46.0728 46 44.7998 46H43.5878L44.4458 47.0725C45.1799 47.9624 45.6659 49.1236 45.8319 50.3849C45.9979 51.6463 45.8353 52.9409 45.3679 54.0779C44.9006 55.2149 44.1533 56.1341 43.2363 56.6998C42.3192 57.2655 41.281 57.4479 40.2748 57.22C41.5975 59.3468 43.4418 60.8727 45.5248 61.5638L51.4748 63.5475C57.7498 65.6575 63.9998 60.125 63.9998 52.4688C64.0019 51.2186 63.8714 49.9736 63.6118 48.7663V48.7663Z" fill="#E5E5E5"/>
</g>
<defs>
<clipPath id="clip0">
<rect width="64" height="64" fill="white"/>
</clipPath>
</defs>
</svg>
