<svg width="64" height="64" viewBox="0 0 64 64" fill="none" xmlns="http://www.w3.org/2000/svg">
<path d="M62.8246 50.1329L48.2208 36.855C46.7873 35.5509 44.5743 35.6191 43.2235 37.0094L34.6264 45.8506C32.5571 45.4554 28.3969 44.1585 24.1145 39.887C19.8321 35.6012 18.5352 31.4303 18.1508 29.3753L26.985 20.7749C28.3789 19.4241 28.4436 17.2147 27.1394 15.7777L13.8648 1.17769C12.5607 -0.262906 10.3441 -0.399421 8.86753 0.865144L1.07161 7.55081C0.450088 8.17591 0.08005 9.00219 0.0297537 9.88236C-0.0241352 10.7805 -1.05162 32.0554 15.4456 48.5594C29.8375 62.9474 47.8651 64 52.8301 64C53.5558 64 54.0012 63.9784 54.1198 63.9713C55 63.921 55.8263 63.5509 56.4478 62.9258L63.13 55.1265C64.4018 53.65 64.2617 51.437 62.8246 50.1329Z" fill="#FB5757"/>
</svg>
