<svg width="24" height="24" viewBox="0 0 24 24" fill="none" xmlns="http://www.w3.org/2000/svg">
<path d="M3.6 19.5617V24L5.418 22.9287L11.1324 19.5617H16.8C18.1236 19.5617 19.2 18.5045 19.2 17.2046V7.77642C19.2 6.47651 18.1236 5.41937 16.8 5.41937H2.4C1.0764 5.41937 0 6.47651 0 7.77642V17.2046C0 18.5045 1.0764 19.5617 2.4 19.5617H3.6ZM2.4 7.77642H16.8V17.2046H10.4676L6 19.8375V17.2046H2.4V7.77642Z" fill="white"/>
<path d="M21.6 0H20.4H17.9976H7.2C5.8764 0 4.8 1.3889 4.8 3.09677H17.5032H19.2C20.5236 3.09677 21.6 4.48568 21.6 6.19355V8.38297V15.4839V18.5806C22.9236 18.5806 24 17.1917 24 15.4839V7.74194V4.64516V3.09677C24 1.3889 22.9236 0 21.6 0Z" fill="white"/>
</svg>
