<svg id="Layer_3" enable-background="new 0 0 64 64" height="512" viewBox="0 0 64 64" width="512" xmlns="http://www.w3.org/2000/svg"><g><g><path d="m49.611 27.889h3v2h-3z" fill="#f29b99" transform="matrix(.707 -.707 .707 .707 -5.458 44.602)"/></g><g><path d="m50.111 19.611h2v3h-2z" fill="#f29b99" transform="matrix(.707 -.707 .707 .707 .042 42.324)"/></g><path d="m55.586 21.043c-.191-.028-.387-.043-.586-.043-2.209 0-4 1.791-4 4s1.791 4 4 4c1.062 0 2.028-.414 2.744-1.09" fill="#e1656e"/><g><path d="m26 48h2v3h-2z" fill="#e1656e"/></g><g><path d="m31 54h3v2h-3z" fill="#e1656e"/></g><path d="m29.749 57.906c.77-.729 1.251-1.761 1.251-2.906 0-2.209-1.791-4-4-4s-4 1.791-4 4c0 .533.104 1.042.293 1.507" fill="#e1656e"/><path d="m52 15-37 37-3-3 37-37" fill="#b52f28"/><g><path d="m30.436 58.633-1.375-1.453c.606-.574.939-1.347.939-2.18 0-1.654-1.346-3-3-3s-3 1.346-3 3c0 .392.074.772.22 1.13l-1.853.754c-.243-.598-.367-1.232-.367-1.884 0-2.757 2.243-5 5-5s5 2.243 5 5c0 1.367-.57 2.691-1.564 3.633z" fill="#ba4753"/></g><g><path d="m23 49.172h2v5.657h-2z" fill="#f29b99" transform="matrix(.707 -.707 .707 .707 -29.74 32.201)"/></g><g><path d="m27.172 51h5.657v2h-5.657z" fill="#f29b99" transform="matrix(.707 -.707 .707 .707 -27.983 36.444)"/></g><g><path d="m55 30c-2.757 0-5-2.243-5-5s2.243-5 5-5c.248 0 .492.018.73.053l-.288 1.979c-.144-.021-.292-.032-.442-.032-1.654 0-3 1.346-3 3s1.346 3 3 3c.769 0 1.5-.29 2.058-.817l1.372 1.455c-.931.878-2.149 1.362-3.43 1.362z" fill="#ba4753"/></g><g><path d="m54 29h2v3h-2z" fill="#ba4753"/></g><g><path d="m48 24h3v2h-3z" fill="#ba4753"/></g><g><path d="m54 24h2v2h-2z" fill="#f29b99"/></g><g><path d="m46.379 34.5h4.243v2h-4.243z" fill="#ba4753" transform="matrix(.707 -.707 .707 .707 -10.897 44.692)"/></g><g><path d="m36.5 33.379h2v4.243h-2z" fill="#f29b99" transform="matrix(.707 -.707 .707 .707 -14.119 36.914)"/></g><g><path d="m47.5 44.379h2v4.243h-2z" fill="#f29b99" transform="matrix(.707 -.707 .707 .707 -18.675 47.914)"/></g><g><path d="m35.379 45.5h4.243v2h-4.243z" fill="#ba4753" transform="matrix(.707 -.707 .707 .707 -21.897 40.136)"/></g><path d="m37.216 42.602c.56 2.026 2.156 3.621 4.181 4.181l.603 4.217h2l.602-4.217c2.06-.569 3.676-2.21 4.209-4.285l-.028-3.101c-.56-2.025-2.156-3.621-4.181-4.181 0 .001-.602-4.216-.602-4.216h-2l-.602 4.217c-2.026.56-3.621 2.155-4.181 4.181" fill="#e1656e"/><circle cx="42" cy="40" fill="#ba4753" r="4"/><path d="m46 43 7-1v-2l-7-1" fill="#f29b99"/><path d="m40 43-7-1v-2l7-1" fill="#f29b99"/><g><path d="m41 37h2v2h-2z" fill="#f29b99"/></g><g><path d="m43 43h2v2h-2z" fill="#f29b99"/></g><g><path d="m13 29h2v3h-2z" fill="#7aadf9"/></g><g><path d="m13 40h2v3h-2z" fill="#7aadf9"/></g><g><path d="m7 35h3v2h-3z" fill="#7aadf9"/></g><g><path d="m18 35h3v2h-3z" fill="#7aadf9"/></g><g><path d="m8.611 38.889h3v2h-3z" fill="#2862be" transform="matrix(.707 -.707 .707 .707 -25.245 18.833)"/></g><g><path d="m16.389 31.111h3v2h-3z" fill="#2862be" transform="matrix(.707 -.707 .707 .707 -17.466 22.055)"/></g><g><path d="m16.889 38.389h2v3h-2z" fill="#2862be" transform="matrix(.707 -.707 .707 .707 -22.97 24.342)"/></g><g><path d="m9.111 30.611h2v3h-2z" fill="#2862be" transform="matrix(.707 -.707 .707 .707 -19.748 16.561)"/></g><circle cx="14" cy="36" fill="#2862be" r="4"/><g><path d="m14 41c-2.757 0-5-2.243-5-5s2.243-5 5-5 5 2.243 5 5-2.243 5-5 5zm0-8c-1.654 0-3 1.346-3 3s1.346 3 3 3 3-1.346 3-3-1.346-3-3-3z" fill="#3279ea"/></g><g><path d="m13 35h2v2h-2z" fill="#7aadf9"/></g><g><path d="m34 7h2v3h-2z" fill="#7aadf9"/></g><g><path d="m34 18h2v3h-2z" fill="#7aadf9"/></g><g><path d="m28 13h3v2h-3z" fill="#7aadf9"/></g><g><path d="m39 13h3v2h-3z" fill="#7aadf9"/></g><circle cx="35" cy="14" fill="#3279ea" r="4"/><g><path d="m35 19c-2.757 0-5-2.243-5-5s2.243-5 5-5 5 2.243 5 5-2.243 5-5 5zm0-8c-1.654 0-3 1.346-3 3s1.346 3 3 3 3-1.346 3-3-1.346-3-3-3z" fill="#2862be"/></g><g><path d="m31 8.172h2v5.657h-2z" fill="#7aadf9" transform="matrix(.707 -.707 .707 .707 1.594 25.849)"/></g><g><path d="m35.172 10h5.657v2h-5.657z" fill="#7aadf9" transform="matrix(.707 -.707 .707 .707 3.352 30.092)"/></g><g><path d="m29.172 16h5.657v2h-5.657z" fill="#7aadf9" transform="matrix(.707 -.707 .707 .707 -2.648 27.607)"/></g><g><path d="m37 14.172h2v5.657h-2z" fill="#7aadf9" transform="matrix(.707 -.707 .707 .707 -.891 31.849)"/></g><path d="m18.367 23.347 6.633 2.653 1-1-2.733-6.832" fill="#f29b99"/><path d="m17.508 23.397-6.508 2.603-1-1 2.677-6.693" fill="#ba4753"/><path d="m18.732 12.507 6.268-2.507 1 1-2.409 6.022" fill="#ba4753"/><path d="m12.216 19.602c.56 2.026 2.156 3.621 4.181 4.181l.603 4.217h2l.602-4.217c2.06-.569 3.676-2.21 4.209-4.285l-.028-3.101c-.56-2.025-2.156-3.621-4.181-4.181 0 .001-.602-4.216-.602-4.216h-2l-.602 4.217c-2.026.56-3.621 2.155-4.181 4.181" fill="#e1656e"/><path d="m21 20 7-1v-2l-7-1" fill="#f29b99"/><path d="m15 20-7-1v-2l7-1" fill="#ba4753"/><g><path d="m16 14h2v2h-2z" fill="#f29b99"/></g><g><path d="m18 20h2v2h-2z" fill="#ba4753"/></g><path d="m32 2c-16.569 0-30 13.431-30 30s13.431 30 30 30 30-13.431 30-30-13.431-30-30-30zm0 56c-14.359 0-26-11.641-26-26s11.641-26 26-26 26 11.641 26 26-11.641 26-26 26z" fill="#b52f28"/><g><path d="m32 59c-14.888 0-27-12.112-27-27s12.112-27 27-27 27 12.112 27 27-12.112 27-27 27zm0-52c-13.785 0-25 11.215-25 25s11.215 25 25 25 25-11.215 25-25-11.215-25-25-25z" fill="#d23f34"/></g></g></svg>