<svg width="64" height="64" viewBox="0 0 64 64" fill="none" xmlns="http://www.w3.org/2000/svg">
<rect width="64" height="64" rx="4" fill="#E5E5E5"/>
<g clip-path="url(#clip0)">
<path d="M13.3333 22C14.564 22 15.767 21.5895 16.7902 20.8203C17.8135 20.0511 18.611 18.9579 19.0819 17.6788C19.5529 16.3997 19.6761 14.9922 19.436 13.6344C19.1959 12.2765 18.6033 11.0292 17.7331 10.0503C16.8629 9.07129 15.7542 8.4046 14.5472 8.13451C13.3402 7.86441 12.0892 8.00303 10.9522 8.53285C9.81523 9.06266 8.84345 9.95987 8.15974 11.111C7.47604 12.2622 7.11111 13.6155 7.11111 15C7.11111 16.8565 7.76666 18.637 8.93356 19.9498C10.1005 21.2625 11.6831 22 13.3333 22ZM13.3333 41.2588C13.3319 40.6047 13.4488 39.9572 13.6768 39.3555C13.9047 38.7538 14.2391 38.2106 14.6594 37.7588L21.6721 30.3125C21.8325 30.143 22.0386 30.0598 22.2175 29.922C21.76 28.619 20.9649 27.5007 19.9355 26.7121C18.9061 25.9236 17.6898 25.5013 16.4444 25.5H10.2222C8.57199 25.5 6.98934 26.2375 5.82245 27.5503C4.65555 28.863 4 30.6435 4 32.5L4 43C4 43.9283 4.32778 44.8185 4.91122 45.4749C5.49467 46.1313 6.28599 46.5 7.11111 46.5V60.5C7.11111 61.4283 7.43889 62.3185 8.02233 62.9749C8.60578 63.6313 9.3971 64 10.2222 64H16.4444C17.2696 64 18.0609 63.6313 18.6443 62.9749C19.2278 62.3185 19.5556 61.4283 19.5556 60.5V49.9573L14.6594 44.7588C14.2389 44.3071 13.9045 43.7638 13.6765 43.1621C13.4485 42.5604 13.3318 41.9128 13.3333 41.2588V41.2588ZM50.6667 22C51.8973 22 53.1003 21.5895 54.1236 20.8203C55.1468 20.0511 55.9443 18.9579 56.4153 17.6788C56.8862 16.3997 57.0094 14.9922 56.7693 13.6344C56.5292 12.2765 55.9366 11.0292 55.0664 10.0503C54.1962 9.07129 53.0876 8.4046 51.8806 8.13451C50.6736 7.86441 49.4225 8.00303 48.2855 8.53285C47.1486 9.06266 46.1768 9.95987 45.4931 11.111C44.8094 12.2622 44.4444 13.6155 44.4444 15C44.4444 16.8565 45.1 18.637 46.2669 19.9498C47.4338 21.2625 49.0164 22 50.6667 22ZM53.7778 25.5H47.5556C46.3103 25.5012 45.0941 25.9234 44.0647 26.7117C43.0353 27.5 42.2402 28.6181 41.7825 29.9209C41.9614 30.0598 42.1714 30.1397 42.3289 30.3136L49.3406 37.7577C49.7597 38.2105 50.0931 38.754 50.3209 39.3554C50.5487 39.9569 50.6661 40.6039 50.6661 41.2577C50.6661 41.9114 50.5487 42.5584 50.3209 43.1599C50.0931 43.7613 49.7597 44.3048 49.3406 44.7577L44.4444 49.9584V60.5C44.4444 61.4283 44.7722 62.3185 45.3557 62.9749C45.9391 63.6313 46.7304 64 47.5556 64H53.7778C54.6029 64 55.3942 63.6313 55.9777 62.9749C56.5611 62.3185 56.8889 61.4283 56.8889 60.5V46.5C57.714 46.5 58.5053 46.1313 59.0888 45.4749C59.6722 44.8185 60 43.9283 60 43V32.5C60 30.6435 59.3444 28.863 58.1776 27.5503C57.0107 26.2375 55.428 25.5 53.7778 25.5V25.5ZM47.2056 40.3028L40.1939 32.8588C40.0284 32.6813 39.8202 32.5624 39.5951 32.5169C39.3701 32.4714 39.1381 32.5014 38.928 32.603C38.718 32.7046 38.5391 32.8734 38.4136 33.0884C38.2881 33.3035 38.2216 33.5553 38.2222 33.8125V37.75H25.7778V33.8125C25.7786 33.5552 25.7122 33.3032 25.5868 33.088C25.4614 32.8728 25.2825 32.7039 25.0724 32.6021C24.8623 32.5004 24.6303 32.4703 24.4051 32.5158C24.18 32.5612 23.9717 32.6801 23.8061 32.8577L16.7944 40.3028C16.5703 40.5569 16.4446 40.9003 16.4446 41.2582C16.4446 41.6161 16.5703 41.9596 16.7944 42.2136L23.8061 49.6588C23.9717 49.8364 24.1801 49.9553 24.4054 50.0007C24.6306 50.0461 24.8627 50.016 25.0729 49.9141C25.283 49.8122 25.4619 49.6431 25.5872 49.4277C25.7125 49.2123 25.7788 48.9602 25.7778 48.7028V44.75H38.2222V48.7028C38.2212 48.9602 38.2875 49.2123 38.4128 49.4277C38.5381 49.6431 38.717 49.8122 38.9271 49.9141C39.1373 50.016 39.3694 50.0461 39.5946 50.0007C39.8199 49.9553 40.0283 49.8364 40.1939 49.6588L47.2056 42.2136C47.4297 41.9596 47.5554 41.6161 47.5554 41.2582C47.5554 40.9003 47.4297 40.5569 47.2056 40.3028V40.3028Z" fill="#C4C4C4"/>
</g>
<defs>
<clipPath id="clip0">
<rect x="4" y="8" width="56" height="56" fill="white"/>
</clipPath>
</defs>
</svg>
