<svg width="64" height="64" viewBox="0 0 64 64" fill="none" xmlns="http://www.w3.org/2000/svg">
<g clip-path="url(#clip0)">
<path d="M61.6 38C62.0747 38 62.5387 37.8241 62.9334 37.4944C63.328 37.1648 63.6357 36.6962 63.8173 36.148C63.999 35.5999 64.0465 34.9967 63.9539 34.4147C63.8613 33.8328 63.6327 33.2982 63.2971 32.8787C62.9614 32.4591 62.5338 32.1734 62.0682 32.0576C61.6027 31.9419 61.1201 32.0013 60.6816 32.2284C60.243 32.4554 59.8682 32.8399 59.6045 33.3333C59.3408 33.8266 59.2 34.4067 59.2 35C59.2 35.7956 59.4529 36.5587 59.9029 37.1213C60.353 37.6839 60.9635 38 61.6 38ZM55.2 52C54.7253 52 54.2613 52.1759 53.8666 52.5056C53.472 52.8352 53.1643 53.3038 52.9827 53.852C52.801 54.4001 52.7535 55.0033 52.8461 55.5853C52.9387 56.1672 53.1673 56.7018 53.5029 57.1213C53.8386 57.5409 54.2662 57.8266 54.7318 57.9424C55.1973 58.0581 55.6799 57.9987 56.1184 57.7716C56.557 57.5446 56.9318 57.1601 57.1955 56.6667C57.4592 56.1734 57.6 55.5933 57.6 55C57.6 54.2044 57.3471 53.4413 56.8971 52.8787C56.447 52.3161 55.8365 52 55.2 52ZM48.8 45C48.3253 45 47.8613 45.1759 47.4666 45.5056C47.072 45.8352 46.7643 46.3038 46.5827 46.852C46.401 47.4001 46.3535 48.0033 46.4461 48.5853C46.5387 49.1672 46.7673 49.7018 47.1029 50.1213C47.4386 50.5409 47.8662 50.8266 48.3318 50.9424C48.7973 51.0581 49.2799 50.9987 49.7184 50.7716C50.157 50.5446 50.5318 50.1601 50.7955 49.6667C51.0592 49.1734 51.2 48.5933 51.2 48C51.2 47.2044 50.9471 46.4413 50.4971 45.8787C50.047 45.3161 49.4365 45 48.8 45ZM61.6 58C61.1253 58 60.6613 58.1759 60.2666 58.5056C59.872 58.8352 59.5643 59.3038 59.3827 59.852C59.201 60.4001 59.1535 61.0033 59.2461 61.5853C59.3387 62.1672 59.5673 62.7018 59.9029 63.1213C60.2386 63.5409 60.6662 63.8266 61.1318 63.9424C61.5973 64.0581 62.0799 63.9987 62.5184 63.7716C62.957 63.5446 63.3318 63.1601 63.5955 62.6667C63.8592 62.1734 64 61.5933 64 61C64 60.2044 63.7471 59.4413 63.2971 58.8787C62.847 58.3161 62.2365 58 61.6 58ZM61.6 45C61.1253 45 60.6613 45.1759 60.2666 45.5056C59.872 45.8352 59.5643 46.3038 59.3827 46.852C59.201 47.4001 59.1535 48.0033 59.2461 48.5853C59.3387 49.1672 59.5673 49.7018 59.9029 50.1213C60.2386 50.5409 60.6662 50.8266 61.1318 50.9424C61.5973 51.0581 62.0799 50.9987 62.5184 50.7716C62.957 50.5446 63.3318 50.1601 63.5955 49.6667C63.8592 49.1734 64 48.5933 64 48C64 47.2044 63.7471 46.4413 63.2971 45.8787C62.847 45.3161 62.2365 45 61.6 45ZM55.2 40C54.7253 40 54.2613 40.1759 53.8666 40.5056C53.472 40.8352 53.1643 41.3038 52.9827 41.852C52.801 42.4001 52.7535 43.0033 52.8461 43.5853C52.9387 44.1672 53.1673 44.7018 53.5029 45.1213C53.8386 45.5409 54.2662 45.8266 54.7318 45.9424C55.1973 46.0581 55.6799 45.9987 56.1184 45.7716C56.557 45.5446 56.9318 45.1601 57.1955 44.6667C57.4592 44.1734 57.6 43.5933 57.6 43C57.6 42.2044 57.3471 41.4413 56.8971 40.8787C56.447 40.3161 55.8365 40 55.2 40ZM47.722 34.375C45.622 28.485 42.872 15.4062 40.41 11.0312C38.4901 7.62528 35.9439 4.84553 32.9855 2.92586C30.0272 1.00619 26.7432 0.00275992 23.41 0L19.2 0C8.6 0 0 10.75 0 24C0 31.0938 2.475 37.4525 6.4 41.86V64H28.8V60H35.2C36.8974 60 38.5252 59.1571 39.7255 57.6569C40.9257 56.1566 41.6 54.1217 41.6 52H32C31.1513 52 30.3374 51.5786 29.7373 50.8284C29.1371 50.0783 28.8 49.0609 28.8 48C28.8 46.9391 29.1371 45.9217 29.7373 45.1716C30.3374 44.4214 31.1513 44 32 44H41.6V40H44.8C45.333 39.9996 45.8575 39.8327 46.3258 39.5146C46.7942 39.1965 47.1915 38.7372 47.4818 38.1784C47.7721 37.6196 47.9461 36.979 47.988 36.3148C48.03 35.6506 47.9385 34.9838 47.722 34.375V34.375ZM28.8 28C28.1671 28 27.5484 27.7654 27.0222 27.3259C26.4959 26.8864 26.0858 26.2616 25.8436 25.5307C25.6014 24.7998 25.538 23.9956 25.6615 23.2196C25.785 22.4437 26.0897 21.731 26.5373 21.1716C26.9848 20.6122 27.555 20.2312 28.1757 20.0769C28.7965 19.9225 29.4399 20.0017 30.0246 20.3045C30.6093 20.6072 31.1091 21.1199 31.4607 21.7777C31.8123 22.4355 32 23.2089 32 24C31.9982 25.0602 31.6604 26.0762 31.0607 26.8259C30.461 27.5755 29.6481 27.9977 28.8 28V28Z" fill="#E5E5E5"/>
</g>
<defs>
<clipPath id="clip0">
<rect width="64" height="64" fill="white"/>
</clipPath>
</defs>
</svg>
