<svg width="67" height="32" viewBox="0 0 67 32" fill="none" xmlns="http://www.w3.org/2000/svg">
<path d="M0 8.72159H2.48353V31.0088H0V8.72159Z" fill="#FB5757"/>
<path d="M7.07214 18.9904H9.55568V31.0088H7.07214V18.9904Z" fill="#FB5757"/>
<path d="M14.1443 21.7128H16.6278V31.0088H14.1443V21.7128Z" fill="#FB5757"/>
<path d="M21.2165 0H23.7V31.0088H21.2165V0Z" fill="#FB5757"/>
<path d="M28.2886 9.0968H30.7722V31.0088H28.2886V9.0968Z" fill="#FB5757"/>
<path d="M35.3608 8.23361H37.8443V31.0088H35.3608V8.23361Z" fill="#FB5757"/>
<path d="M42.4329 8.72159H44.9165V31.0088H42.4329V8.72159Z" fill="#FB5757"/>
<path d="M49.5051 8.72159H51.9886V31.0088H49.5051V8.72159Z" fill="#FB5757"/>
<path d="M56.5773 18.7216H59.0608V31.0088H56.5773V18.7216Z" fill="#FB5757"/>
<path d="M63.6494 18.3928H66.1329V31.0088H63.6494V18.3928Z" fill="#FB5757"/>
</svg>
