<svg width="32" height="32" viewBox="0 0 32 32" fill="none" xmlns="http://www.w3.org/2000/svg">
<path d="M30.3734 11.7679C30.7299 10.9463 30.3606 9.98644 29.5497 9.62689L8.55517 0.262466C6.9575 -0.450115 4.99052 0.345438 4.30809 1.95769L0.759496 10.3427C0.0642281 11.994 0.822119 13.9089 2.44869 14.6117L12.1439 18.8221L10.1528 23.8655H3.2114V18.9848H0V25.4924V32H3.2114V27.1193H10.1528C11.4743 27.1193 12.6449 26.3156 13.133 25.0727L15.0952 20.1041L23.4529 23.7321C23.6584 23.8248 23.8735 23.8655 24.0855 23.8655C24.7037 23.8655 25.2914 23.5011 25.5563 22.891L26.0573 21.7359L28.7886 22.8422L32 14.7077L29.5336 13.7104L30.3734 11.7679ZM23.2537 20.1074L3.71398 11.6231L7.25937 3.24132L26.7879 11.9517L23.2537 20.1074Z" fill="#FB5757"/>
</svg>
