<svg width="53" height="38" viewBox="0 0 53 38" fill="none" xmlns="http://www.w3.org/2000/svg">
<path d="M34.916 9.564C35.138 9.059 34.908 8.469 34.403 8.248L21.328 2.492C20.333 2.054 19.108 2.543 18.683 3.534L16.473 8.688C16.04 9.703 16.512 10.88 17.525 11.312L23.563 13.9L22.323 17H18V14H16V18V22H18V19H22.323C23.146 19 23.875 18.506 24.179 17.742L25.401 14.688L30.606 16.918C30.734 16.975 30.868 17 31 17C31.385 17 31.751 16.776 31.916 16.401L32.228 15.691L33.929 16.371L35.929 11.371L34.393 10.758L34.916 9.564ZM30.482 14.69L18.313 9.475L20.521 4.323L32.683 9.677L30.482 14.69Z" fill="#FB5757"/>
<path d="M0.990234 35V26.4688H3.39844C4.14062 26.4688 4.79688 26.6328 5.36719 26.9609C5.9375 27.2891 6.37695 27.7559 6.68555 28.3613C6.99805 28.9668 7.15625 29.6621 7.16016 30.4473V30.9922C7.16016 31.7969 7.00391 32.502 6.69141 33.1074C6.38281 33.7129 5.93945 34.1777 5.36133 34.502C4.78711 34.8262 4.11719 34.9922 3.35156 35H0.990234ZM2.11523 27.3945V34.0801H3.29883C4.16602 34.0801 4.83984 33.8105 5.32031 33.2715C5.80469 32.7324 6.04688 31.9648 6.04688 30.9688V30.4707C6.04688 29.502 5.81836 28.75 5.36133 28.2148C4.9082 27.6758 4.26367 27.4023 3.42773 27.3945H2.11523ZM9.87305 35H8.78906V28.6602H9.87305V35ZM8.70117 26.9785C8.70117 26.8027 8.75391 26.6543 8.85938 26.5332C8.96875 26.4121 9.12891 26.3516 9.33984 26.3516C9.55078 26.3516 9.71094 26.4121 9.82031 26.5332C9.92969 26.6543 9.98438 26.8027 9.98438 26.9785C9.98438 27.1543 9.92969 27.3008 9.82031 27.418C9.71094 27.5352 9.55078 27.5938 9.33984 27.5938C9.12891 27.5938 8.96875 27.5352 8.85938 27.418C8.75391 27.3008 8.70117 27.1543 8.70117 26.9785ZM15.5273 35C15.4648 34.875 15.4141 34.6523 15.375 34.332C14.8711 34.8555 14.2695 35.1172 13.5703 35.1172C12.9453 35.1172 12.4316 34.9414 12.0293 34.5898C11.6309 34.2344 11.4316 33.7852 11.4316 33.2422C11.4316 32.582 11.6816 32.0703 12.1816 31.707C12.6855 31.3398 13.3926 31.1562 14.3027 31.1562H15.3574V30.6582C15.3574 30.2793 15.2441 29.9785 15.0176 29.7559C14.791 29.5293 14.457 29.416 14.0156 29.416C13.6289 29.416 13.3047 29.5137 13.043 29.709C12.7812 29.9043 12.6504 30.1406 12.6504 30.418H11.5605C11.5605 30.1016 11.6719 29.7969 11.8945 29.5039C12.1211 29.207 12.4258 28.9727 12.8086 28.8008C13.1953 28.6289 13.6191 28.543 14.0801 28.543C14.8105 28.543 15.3828 28.7266 15.7969 29.0938C16.2109 29.457 16.4258 29.959 16.4414 30.5996V33.5176C16.4414 34.0996 16.5156 34.5625 16.6641 34.9062V35H15.5273ZM13.7285 34.1738C14.0684 34.1738 14.3906 34.0859 14.6953 33.9102C15 33.7344 15.2207 33.5059 15.3574 33.2246V31.9238H14.5078C13.1797 31.9238 12.5156 32.3125 12.5156 33.0898C12.5156 33.4297 12.6289 33.6953 12.8555 33.8867C13.082 34.0781 13.373 34.1738 13.7285 34.1738ZM17.8828 31.7773C17.8828 30.7891 18.1113 30.0039 18.5684 29.4219C19.0254 28.8359 19.6309 28.543 20.3848 28.543C21.1582 28.543 21.7617 28.8164 22.1953 29.3633L22.248 28.6602H23.2383V34.8477C23.2383 35.668 22.9941 36.3145 22.5059 36.7871C22.0215 37.2598 21.3691 37.4961 20.5488 37.4961C20.0918 37.4961 19.6445 37.3984 19.207 37.2031C18.7695 37.0078 18.4355 36.7402 18.2051 36.4004L18.7676 35.75C19.2324 36.3242 19.8008 36.6113 20.4727 36.6113C21 36.6113 21.4102 36.4629 21.7031 36.166C22 35.8691 22.1484 35.4512 22.1484 34.9121V34.3672C21.7148 34.8672 21.123 35.1172 20.373 35.1172C19.6309 35.1172 19.0293 34.8184 18.5684 34.2207C18.1113 33.623 17.8828 32.8086 17.8828 31.7773ZM18.9727 31.9004C18.9727 32.6152 19.1191 33.1777 19.4121 33.5879C19.7051 33.9941 20.1152 34.1973 20.6426 34.1973C21.3262 34.1973 21.8281 33.8867 22.1484 33.2656V30.3711C21.8164 29.7656 21.3184 29.4629 20.6543 29.4629C20.127 29.4629 19.7148 29.668 19.418 30.0781C19.1211 30.4883 18.9727 31.0957 18.9727 31.9004ZM25.9043 28.6602L25.9395 29.457C26.4238 28.8477 27.0566 28.543 27.8379 28.543C29.1777 28.543 29.8535 29.2988 29.8652 30.8105V35H28.7812V30.8047C28.7773 30.3477 28.6719 30.0098 28.4648 29.791C28.2617 29.5723 27.9434 29.4629 27.5098 29.4629C27.1582 29.4629 26.8496 29.5566 26.584 29.7441C26.3184 29.9316 26.1113 30.1777 25.9629 30.4824V35H24.8789V28.6602H25.9043ZM31.2129 31.7715C31.2129 31.1504 31.334 30.5918 31.5762 30.0957C31.8223 29.5996 32.1621 29.2168 32.5957 28.9473C33.0332 28.6777 33.5312 28.543 34.0898 28.543C34.9531 28.543 35.6504 28.8418 36.1816 29.4395C36.7168 30.0371 36.9844 30.832 36.9844 31.8242V31.9004C36.9844 32.5176 36.8652 33.0723 36.627 33.5645C36.3926 34.0527 36.0547 34.4336 35.6133 34.707C35.1758 34.9805 34.6719 35.1172 34.1016 35.1172C33.2422 35.1172 32.5449 34.8184 32.0098 34.2207C31.4785 33.623 31.2129 32.832 31.2129 31.8477V31.7715ZM32.3027 31.9004C32.3027 32.6035 32.4648 33.168 32.7891 33.5938C33.1172 34.0195 33.5547 34.2324 34.1016 34.2324C34.6523 34.2324 35.0898 34.0176 35.4141 33.5879C35.7383 33.1543 35.9004 32.5488 35.9004 31.7715C35.9004 31.0762 35.7344 30.5137 35.4023 30.084C35.0742 29.6504 34.6367 29.4336 34.0898 29.4336C33.5547 29.4336 33.123 29.6465 32.7949 30.0723C32.4668 30.498 32.3027 31.1074 32.3027 31.9004ZM42.0352 33.3184C42.0352 33.0254 41.9238 32.7988 41.7012 32.6387C41.4824 32.4746 41.0977 32.334 40.5469 32.2168C40 32.0996 39.5645 31.959 39.2402 31.7949C38.9199 31.6309 38.6816 31.4355 38.5254 31.209C38.373 30.9824 38.2969 30.7129 38.2969 30.4004C38.2969 29.8809 38.5156 29.4414 38.9531 29.082C39.3945 28.7227 39.957 28.543 40.6406 28.543C41.3594 28.543 41.9414 28.7285 42.3867 29.0996C42.8359 29.4707 43.0605 29.9453 43.0605 30.5234H41.9707C41.9707 30.2266 41.8438 29.9707 41.5898 29.7559C41.3398 29.541 41.0234 29.4336 40.6406 29.4336C40.2461 29.4336 39.9375 29.5195 39.7148 29.6914C39.4922 29.8633 39.3809 30.0879 39.3809 30.3652C39.3809 30.627 39.4844 30.8242 39.6914 30.957C39.8984 31.0898 40.2715 31.2168 40.8105 31.3379C41.3535 31.459 41.793 31.6035 42.1289 31.7715C42.4648 31.9395 42.7129 32.1426 42.873 32.3809C43.0371 32.6152 43.1191 32.9023 43.1191 33.2422C43.1191 33.8086 42.8926 34.2637 42.4395 34.6074C41.9863 34.9473 41.3984 35.1172 40.6758 35.1172C40.168 35.1172 39.7188 35.0273 39.3281 34.8477C38.9375 34.668 38.6309 34.418 38.4082 34.0977C38.1895 33.7734 38.0801 33.4238 38.0801 33.0488H39.1641C39.1836 33.4121 39.3281 33.7012 39.5977 33.916C39.8711 34.127 40.2305 34.2324 40.6758 34.2324C41.0859 34.2324 41.4141 34.1504 41.6602 33.9863C41.9102 33.8184 42.0352 33.5957 42.0352 33.3184ZM45.709 35H44.625V28.6602H45.709V35ZM44.5371 26.9785C44.5371 26.8027 44.5898 26.6543 44.6953 26.5332C44.8047 26.4121 44.9648 26.3516 45.1758 26.3516C45.3867 26.3516 45.5469 26.4121 45.6562 26.5332C45.7656 26.6543 45.8203 26.8027 45.8203 26.9785C45.8203 27.1543 45.7656 27.3008 45.6562 27.418C45.5469 27.5352 45.3867 27.5938 45.1758 27.5938C44.9648 27.5938 44.8047 27.5352 44.6953 27.418C44.5898 27.3008 44.5371 27.1543 44.5371 26.9785ZM51.1406 33.3184C51.1406 33.0254 51.0293 32.7988 50.8066 32.6387C50.5879 32.4746 50.2031 32.334 49.6523 32.2168C49.1055 32.0996 48.6699 31.959 48.3457 31.7949C48.0254 31.6309 47.7871 31.4355 47.6309 31.209C47.4785 30.9824 47.4023 30.7129 47.4023 30.4004C47.4023 29.8809 47.6211 29.4414 48.0586 29.082C48.5 28.7227 49.0625 28.543 49.7461 28.543C50.4648 28.543 51.0469 28.7285 51.4922 29.0996C51.9414 29.4707 52.166 29.9453 52.166 30.5234H51.0762C51.0762 30.2266 50.9492 29.9707 50.6953 29.7559C50.4453 29.541 50.1289 29.4336 49.7461 29.4336C49.3516 29.4336 49.043 29.5195 48.8203 29.6914C48.5977 29.8633 48.4863 30.0879 48.4863 30.3652C48.4863 30.627 48.5898 30.8242 48.7969 30.957C49.0039 31.0898 49.377 31.2168 49.916 31.3379C50.459 31.459 50.8984 31.6035 51.2344 31.7715C51.5703 31.9395 51.8184 32.1426 51.9785 32.3809C52.1426 32.6152 52.2246 32.9023 52.2246 33.2422C52.2246 33.8086 51.998 34.2637 51.5449 34.6074C51.0918 34.9473 50.5039 35.1172 49.7812 35.1172C49.2734 35.1172 48.8242 35.0273 48.4336 34.8477C48.043 34.668 47.7363 34.418 47.5137 34.0977C47.2949 33.7734 47.1855 33.4238 47.1855 33.0488H48.2695C48.2891 33.4121 48.4336 33.7012 48.7031 33.916C48.9766 34.127 49.3359 34.2324 49.7812 34.2324C50.1914 34.2324 50.5195 34.1504 50.7656 33.9863C51.0156 33.8184 51.1406 33.5957 51.1406 33.3184Z" fill="#4F4F4F"/>
</svg>
