<svg width="64" height="64" viewBox="0 0 64 64" fill="none" xmlns="http://www.w3.org/2000/svg">
<g clip-path="url(#clip0)">
<path d="M34 30C33.6044 30 33.2178 30.1173 32.8889 30.3371C32.56 30.5568 32.3036 30.8692 32.1522 31.2346C32.0009 31.6001 31.9613 32.0022 32.0384 32.3902C32.1156 32.7781 32.3061 33.1345 32.5858 33.4142C32.8655 33.6939 33.2219 33.8844 33.6098 33.9616C33.9978 34.0387 34.3999 33.9991 34.7654 33.8478C35.1308 33.6964 35.4432 33.44 35.6629 33.1111C35.8827 32.7822 36 32.3956 36 32C36 31.4696 35.7893 30.9609 35.4142 30.5858C35.0391 30.2107 34.5304 30 34 30ZM26 22C25.6044 22 25.2178 22.1173 24.8889 22.3371C24.56 22.5568 24.3036 22.8692 24.1522 23.2346C24.0009 23.6001 23.9613 24.0022 24.0384 24.3902C24.1156 24.7781 24.3061 25.1345 24.5858 25.4142C24.8655 25.6939 25.2219 25.8844 25.6098 25.9616C25.9978 26.0387 26.3999 25.9991 26.7654 25.8478C27.1308 25.6964 27.4432 25.44 27.6629 25.1111C27.8827 24.7822 28 24.3956 28 24C28 23.4696 27.7893 22.9609 27.4142 22.5858C27.0391 22.2107 26.5304 22 26 22ZM63.65 34.375C61.0338 28.485 57.5963 15.4088 54.5163 11.0312C52.1176 7.62286 48.9344 4.84138 45.2351 2.92148C41.5358 1.00157 37.4291 -0.000431027 33.2612 1.3909e-07H24C10.75 1.3909e-07 7.04172e-07 10.75 7.04172e-07 24C-0.000817584 27.3714 0.711547 30.7049 2.09031 33.7814C3.46908 36.858 5.48306 39.6082 8 41.8512V64H40V56H48C50.1217 56 52.1566 55.1571 53.6569 53.6569C55.1571 52.1566 56 50.1217 56 48V40H60C60.6661 39.9992 61.3214 39.832 61.9064 39.5137C62.4915 39.1954 62.9879 38.7361 63.3504 38.1773C63.713 37.6186 63.9303 36.9782 63.9826 36.3142C64.0349 35.6502 63.9206 34.9836 63.65 34.375V34.375ZM46 30H44.485C40.9213 30 39.1363 34.3088 41.6562 36.8288L42.7287 37.9C43.1039 38.2751 43.3146 38.7839 43.3146 39.3144C43.3146 39.8449 43.1039 40.3536 42.7287 40.7287C42.3536 41.1039 41.8449 41.3146 41.3144 41.3146C40.7839 41.3146 40.2751 41.1039 39.9 40.7287L38.8288 39.6562C36.3088 37.1363 32 38.9213 32 42.485V44C32 44.5304 31.7893 45.0391 31.4142 45.4142C31.0391 45.7893 30.5304 46 30 46C29.4696 46 28.9609 45.7893 28.5858 45.4142C28.2107 45.0391 28 44.5304 28 44V42.485C28 38.9213 23.6912 37.1363 21.1712 39.6562L20.1 40.7287C19.7249 41.1039 19.2161 41.3146 18.6856 41.3146C18.1551 41.3146 17.6464 41.1039 17.2712 40.7287C16.8961 40.3536 16.6854 39.8449 16.6854 39.3144C16.6854 38.7839 16.8961 38.2751 17.2712 37.9L18.3438 36.8288C20.8637 34.3088 19.0788 30 15.515 30H14C13.4696 30 12.9609 29.7893 12.5858 29.4142C12.2107 29.0391 12 28.5304 12 28C12 27.4696 12.2107 26.9609 12.5858 26.5858C12.9609 26.2107 13.4696 26 14 26H15.515C19.0788 26 20.8637 21.6912 18.3438 19.1712L17.2712 18.1C16.8961 17.7249 16.6854 17.2161 16.6854 16.6856C16.6854 16.423 16.7371 16.1628 16.8377 15.9202C16.9382 15.6775 17.0855 15.457 17.2712 15.2712C17.457 15.0855 17.6775 14.9382 17.9202 14.8377C18.1628 14.7371 18.423 14.6854 18.6856 14.6854C19.2161 14.6854 19.7249 14.8961 20.1 15.2712L21.1712 16.3438C23.6912 18.8637 28 17.0788 28 13.515V12C28 11.4696 28.2107 10.9609 28.5858 10.5858C28.9609 10.2107 29.4696 10 30 10C30.5304 10 31.0391 10.2107 31.4142 10.5858C31.7893 10.9609 32 11.4696 32 12V13.515C32 17.0788 36.3088 18.8637 38.8288 16.3438L39.9 15.2712C40.2751 14.8961 40.7839 14.6854 41.3144 14.6854C41.8449 14.6854 42.3536 14.8961 42.7287 15.2712C43.1039 15.6464 43.3146 16.1551 43.3146 16.6856C43.3146 17.2161 43.1039 17.7249 42.7287 18.1L41.6562 19.1712C39.1363 21.6912 40.9213 26 44.485 26H46C46.5304 26 47.0391 26.2107 47.4142 26.5858C47.7893 26.9609 48 27.4696 48 28C48 28.5304 47.7893 29.0391 47.4142 29.4142C47.0391 29.7893 46.5304 30 46 30Z" fill="#E5E5E5"/>
</g>
<defs>
<clipPath id="clip0">
<rect width="64" height="64" fill="white"/>
</clipPath>
</defs>
</svg>
