<svg width="64" height="64" viewBox="0 0 64 64" fill="none" xmlns="http://www.w3.org/2000/svg">
<path d="M52 0C45.3875 0 40 5.3875 40 12C40 18.6125 45.3875 24 52 24C58.6125 24 64 18.6125 64 12C64 5.3875 58.6125 0 52 0ZM52 16C49.7875 16 48 14.2125 48 12C48 9.7875 49.7875 8 52 8C54.2125 8 56 9.7875 56 12C56 14.2125 54.2125 16 52 16ZM32 14C32 6.2625 25.7375 0 18 0C10.2625 0 4 6.2625 4 14V34.8125C1.5375 37.9 0 41.75 0 46C0 55.9375 8.0625 64 18 64C27.9375 64 36 55.9375 36 46C36 41.75 34.4625 37.8875 32 34.8125V14ZM18 56C12.4875 56 8 51.5125 8 46C8 42.8125 9.525 39.8875 12 38.025V14C12 10.6875 14.6875 8 18 8C21.3125 8 24 10.6875 24 14V38.025C26.475 39.875 28 42.8125 28 46C28 51.5125 23.5125 56 18 56ZM20 40.3625V14C20 12.9 19.1 12 18 12C16.9 12 16 12.9 16 14V40.3625C13.675 41.1875 12 43.3875 12 46C12 49.3125 14.6875 52 18 52C21.3125 52 24 49.3125 24 46C24 43.3875 22.325 41.1875 20 40.3625Z" fill="#E5E5E5"/>
</svg>
