<svg id="Layer_3" enable-background="new 0 0 64 64" height="512" viewBox="0 0 64 64" width="512" xmlns="http://www.w3.org/2000/svg"><g><path d="m63 3h-26c-1.105 0-2 .895-2 2v4c0 1.105.895 2 2 2h16l4-4h6" fill="#f4b2b0"/><path d="m10 49c3.314 0 6-2.686 6-6 0 3.314 2.686 6 6 6-3.314 0-6 2.686-6 6 0-3.314-2.686-6-6-6z" fill="#f4b2b0"/><path d="m2 24c3.314 0 6-2.686 6-6 0 3.314 2.686 6 6 6-3.314 0-6 2.686-6 6 0-3.314-2.686-6-6-6z" fill="#f4b2b0"/><g fill="#b3404a"><path d="m18.707 32.707c1.101-1.101 2.565-1.707 4.122-1.707h4.171c.551 0 1 .448 1 1v1h-5c-.552 0-1 .447-1 1 0 1.654-1.346 3-3 3h-2v2h2c2.415 0 4.435-1.721 4.899-4h5.101 10c.551 0 1 .448 1 1s-.449 1-1 1h-13v2h17c.551 0 1 .448 1 1s-.449 1-1 1h-2v2h2c1.654 0 3-1.346 3-3s-1.346-3-3-3h-1.184c.112-.314.184-.648.184-1 0-.883-.391-1.67-1-2.22v-3.78h-2v3h-9v-1c0-1.654-1.346-3-3-3h-4.171c-2.091 0-4.057.814-5.536 2.293-1.101 1.101-2.565 1.707-4.122 1.707h-12.171v2h12.171c2.091 0 4.057-.814 5.536-2.293z"/><path d="m25.553 61.895c1.447.723 3.067 1.105 4.683 1.105h12.764c1.654 0 3-1.346 3-3 0-.352-.072-.686-.184-1h1.184c1.654 0 3-1.346 3-3 0-.352-.072-.686-.184-1h1.184c1.654 0 3-1.346 3-3s-1.346-3-3-3h-1.184c.112-.314.184-.648.184-1 0-1.654-1.346-3-3-3h-7v-1c0-1.654-1.346-3-3-3h-6.171c-2.091 0-4.057.814-5.536 2.293-1.101 1.101-2.565 1.707-4.122 1.707h-1.171v2h1.171c2.091 0 4.057-.814 5.536-2.293 1.101-1.101 2.565-1.707 4.122-1.707h6.171c.551 0 1 .448 1 1v1h-7v2h8 8c.551 0 1 .448 1 1s-.449 1-1 1h-13v2h17c.551 0 1 .448 1 1s-.449 1-1 1h-17v2h13c.551 0 1 .448 1 1s-.449 1-1 1h-13v2h9c.551 0 1 .448 1 1s-.449 1-1 1h-12.764c-1.308 0-2.618-.31-3.789-.895-1.447-.723-3.067-1.105-4.683-1.105h-20.764v2h20.764c1.308 0 2.618.31 3.789.895z"/><path d="m1 45h11v2h-11z"/><path d="m34 5v4c0 1.302.839 2.402 2 2.816v3.184c0 .553.448 1 1 1h14c.552 0 1-.447 1-1v-3h1c.265 0 .52-.105.707-.293l3.707-3.707h5.586v-2h-6c-.265 0-.52.105-.707.293l-3.707 3.707h-15.586c-.551 0-1-.448-1-1v-4c0-.552.449-1 1-1h26v-2h-26c-1.654 0-3 1.346-3 3zm16 9h-12v-2h12z"/><path d="m43 18h2v4h-2z"/><path d="m43 24h2v4h-2z"/><path d="m43 30h2v4h-2z"/><path d="m47 18h2v4h-2z"/><path d="m47 24h2v4h-2z"/><path d="m47 30h2v4h-2z"/><path d="m39 18h2v4h-2z"/><path d="m39 24h2v4h-2z"/><path d="m1 24c0 .553.448 1 1 1 2.757 0 5 2.243 5 5 0 .553.448 1 1 1s1-.447 1-1c0-2.757 2.243-5 5-5 .552 0 1-.447 1-1s-.448-1-1-1c-2.757 0-5-2.243-5-5 0-.553-.448-1-1-1s-1 .447-1 1c0 2.757-2.243 5-5 5-.552 0-1 .447-1 1zm7-2.397c.591.98 1.417 1.807 2.397 2.397-.98.591-1.806 1.417-2.397 2.397-.591-.98-1.417-1.806-2.397-2.397.98-.591 1.806-1.417 2.397-2.397z"/><path d="m16 42c-.552 0-1 .447-1 1 0 2.757-2.243 5-5 5-.552 0-1 .447-1 1s.448 1 1 1c2.757 0 5 2.243 5 5 0 .553.448 1 1 1s1-.447 1-1c0-2.757 2.243-5 5-5 .552 0 1-.447 1-1s-.448-1-1-1c-2.757 0-5-2.243-5-5 0-.553-.448-1-1-1zm2.397 7c-.981.591-1.806 1.417-2.397 2.397-.591-.98-1.417-1.807-2.397-2.397.981-.591 1.806-1.417 2.397-2.397.591.98 1.417 1.806 2.397 2.397z"/><path d="m19 20c0 .553.448 1 1 1s1-.447 1-1c0-1.654 1.346-3 3-3 .552 0 1-.447 1-1s-.448-1-1-1c-1.654 0-3-1.346-3-3 0-.553-.448-1-1-1s-1 .447-1 1c0 1.654-1.346 3-3 3-.552 0-1 .447-1 1s.448 1 1 1c1.654 0 3 1.346 3 3zm1-5.003c.285.38.624.718 1.003 1.003-.379.285-.718.623-1.003 1.003-.285-.38-.624-.718-1.003-1.003.379-.285.718-.623 1.003-1.003z"/><path d="m62 43c-1.654 0-3-1.346-3-3 0-.553-.448-1-1-1s-1 .447-1 1c0 1.654-1.346 3-3 3-.552 0-1 .447-1 1s.448 1 1 1c1.654 0 3 1.346 3 3 0 .553.448 1 1 1s1-.447 1-1c0-1.654 1.346-3 3-3 .552 0 1-.447 1-1s-.448-1-1-1zm-4 2.003c-.285-.38-.624-.718-1.003-1.003.379-.285.718-.623 1.003-1.003.285.38.624.718 1.003 1.003-.379.285-.718.623-1.003 1.003z"/><path d="m8 10c0 .553.448 1 1 1s1-.447 1-1c0-1.654 1.346-3 3-3 .552 0 1-.447 1-1s-.448-1-1-1c-1.654 0-3-1.346-3-3 0-.553-.448-1-1-1s-1 .447-1 1c0 1.654-1.346 3-3 3-.552 0-1 .447-1 1s.448 1 1 1c1.654 0 3 1.346 3 3zm1-5.003c.285.38.624.718 1.003 1.003-.379.285-.718.623-1.003 1.003-.285-.38-.624-.718-1.003-1.003.379-.285.718-.623 1.003-1.003z"/></g></g></svg>