<svg width="33" height="38" viewBox="0 0 33 38" fill="none" xmlns="http://www.w3.org/2000/svg">
<path d="M7.54688 35H6.41602V31.0566H2.11523V35H0.990234V26.4688H2.11523V30.1367H6.41602V26.4688H7.54688V35ZM9.08789 31.7715C9.08789 31.1504 9.20898 30.5918 9.45117 30.0957C9.69727 29.5996 10.0371 29.2168 10.4707 28.9473C10.9082 28.6777 11.4062 28.543 11.9648 28.543C12.8281 28.543 13.5254 28.8418 14.0566 29.4395C14.5918 30.0371 14.8594 30.832 14.8594 31.8242V31.9004C14.8594 32.5176 14.7402 33.0723 14.502 33.5645C14.2676 34.0527 13.9297 34.4336 13.4883 34.707C13.0508 34.9805 12.5469 35.1172 11.9766 35.1172C11.1172 35.1172 10.4199 34.8184 9.88477 34.2207C9.35352 33.623 9.08789 32.832 9.08789 31.8477V31.7715ZM10.1777 31.9004C10.1777 32.6035 10.3398 33.168 10.6641 33.5938C10.9922 34.0195 11.4297 34.2324 11.9766 34.2324C12.5273 34.2324 12.9648 34.0176 13.2891 33.5879C13.6133 33.1543 13.7754 32.5488 13.7754 31.7715C13.7754 31.0762 13.6094 30.5137 13.2773 30.084C12.9492 29.6504 12.5117 29.4336 11.9648 29.4336C11.4297 29.4336 10.998 29.6465 10.6699 30.0723C10.3418 30.498 10.1777 31.1074 10.1777 31.9004ZM17.2383 28.6602L17.2676 29.3633C17.7324 28.8164 18.3594 28.543 19.1484 28.543C20.0352 28.543 20.6387 28.8828 20.959 29.5625C21.1699 29.2578 21.4434 29.0117 21.7793 28.8242C22.1191 28.6367 22.5195 28.543 22.9805 28.543C24.3711 28.543 25.0781 29.2793 25.1016 30.752V35H24.0176V30.8164C24.0176 30.3633 23.9141 30.0254 23.707 29.8027C23.5 29.5762 23.1523 29.4629 22.6641 29.4629C22.2617 29.4629 21.9277 29.584 21.6621 29.8262C21.3965 30.0645 21.2422 30.3867 21.1992 30.793V35H20.1094V30.8457C20.1094 29.9238 19.6582 29.4629 18.7559 29.4629C18.0449 29.4629 17.5586 29.7656 17.2969 30.3711V35H16.2129V28.6602H17.2383ZM29.373 35.1172C28.5137 35.1172 27.8145 34.8359 27.2754 34.2734C26.7363 33.707 26.4668 32.9512 26.4668 32.0059V31.8066C26.4668 31.1777 26.5859 30.6172 26.8242 30.125C27.0664 29.6289 27.4023 29.2422 27.832 28.9648C28.2656 28.6836 28.7344 28.543 29.2383 28.543C30.0625 28.543 30.7031 28.8145 31.1602 29.3574C31.6172 29.9004 31.8457 30.6777 31.8457 31.6895V32.1406H27.5508C27.5664 32.7656 27.748 33.2715 28.0957 33.6582C28.4473 34.041 28.8926 34.2324 29.4316 34.2324C29.8145 34.2324 30.1387 34.1543 30.4043 33.998C30.6699 33.8418 30.9023 33.6348 31.1016 33.377L31.7637 33.8926C31.2324 34.709 30.4355 35.1172 29.373 35.1172ZM29.2383 29.4336C28.8008 29.4336 28.4336 29.5938 28.1367 29.9141C27.8398 30.2305 27.6562 30.6758 27.5859 31.25H30.7617V31.168C30.7305 30.6172 30.582 30.1914 30.3164 29.8906C30.0508 29.5859 29.6914 29.4336 29.2383 29.4336Z" fill="#4F4F4F"/>
<path d="M25.743 12.331L16.743 2.331C16.364 1.909 15.636 1.909 15.257 2.331L6.257 12.331C5.993 12.624 5.926 13.046 6.087 13.407C6.248 13.768 6.605 14 7 14H9V21C9 21.552 9.448 22 10 22H22C22.553 22 23 21.552 23 21V14H25C25.395 14 25.753 13.768 25.913 13.407C26.074 13.046 26.008 12.625 25.743 12.331ZM16 16C14.344 16 13 14.657 13 13C13 11.343 14.344 10 16 10C17.657 10 19 11.343 19 13C19 14.657 17.657 16 16 16Z" fill="#FB5757"/>
</svg>
