<svg width="82" height="82" viewBox="0 0 82 82" fill="none" xmlns="http://www.w3.org/2000/svg">
<rect width="82" height="82" rx="4" fill="#E5E5E5"/>
<g clip-path="url(#clip0)">
<path d="M10.0182 42.3321C9.73726 49.5723 12.7852 56.0932 17.75 60.5519V82H37.125V58.3274L10.4444 38.9209C10.2139 40.0452 10.0714 41.1857 10.0182 42.3321V42.3321ZM71.6634 53.3008C69.1204 47.5948 65.7903 34.9248 62.809 30.6865C60.4844 27.387 57.4013 24.6941 53.8191 22.8344C50.2369 20.9747 46.2604 20.0027 42.2243 20L34.2188 20C24.168 20 15.1441 26.1237 11.6045 34.9732L38.9669 54.875H71.971C71.9817 54.3343 71.8769 53.7976 71.6634 53.3008ZM48.75 47.125C47.9836 47.125 47.2344 46.8977 46.5972 46.4719C45.96 46.0462 45.4633 45.441 45.17 44.7329C44.8767 44.0248 44.8 43.2457 44.9495 42.494C45.099 41.7423 45.4681 41.0519 46.01 40.51C46.5519 39.968 47.2424 39.599 47.9941 39.4495C48.7457 39.2999 49.5249 39.3767 50.2329 39.67C50.941 39.9633 51.5462 40.4599 51.972 41.0972C52.3978 41.7344 52.625 42.4836 52.625 43.25C52.6228 44.277 52.2138 45.2613 51.4876 45.9876C50.7614 46.7138 49.7771 47.1228 48.75 47.125V47.125ZM50.6875 64.5625H70.0625L72 58.75H41V82H58.6652C60.2916 81.9999 61.8768 81.488 63.1962 80.537C64.5157 79.586 65.5024 78.2439 66.0168 76.7009L66.1875 76.1875H50.6875C50.1737 76.1875 49.6809 75.9834 49.3175 75.62C48.9542 75.2567 48.75 74.7639 48.75 74.25C48.75 73.7361 48.9542 73.2433 49.3175 72.88C49.6809 72.5166 50.1737 72.3125 50.6875 72.3125H67.4796L68.7717 68.4375H50.6875C50.1737 68.4375 49.6809 68.2334 49.3175 67.87C48.9542 67.5067 48.75 67.0139 48.75 66.5C48.75 65.9861 48.9542 65.4933 49.3175 65.13C49.6809 64.7666 50.1737 64.5625 50.6875 64.5625Z" fill="#C4C4C4"/>
</g>
<defs>
<clipPath id="clip0">
<rect x="10" y="20" width="62" height="62" fill="white"/>
</clipPath>
</defs>
</svg>
