<svg width="57" height="38" viewBox="0 0 57 38" fill="none" xmlns="http://www.w3.org/2000/svg">
<path d="M37 9.99999H23V7.11299C23 6.11599 23.678 5.18999 24.661 5.02799C25.912 4.82099 27 5.78599 27 6.99999H29C29 4.66299 26.986 2.78799 24.602 3.01999C22.523 3.22199 21 5.08899 21 7.17799V9.99999H19C18.447 9.99999 18 10.448 18 11V13C18 15.606 19.674 17.823 22 18.65V22H24V19H32V22H34V18.65C36.326 17.823 38 15.606 38 13V11C38 10.448 37.553 9.99999 37 9.99999Z" fill="#FB5757"/>
<path d="M2.11523 31.6602V35H0.990234V26.4688H4.13672C5.07031 26.4688 5.80078 26.707 6.32812 27.1836C6.85938 27.6602 7.125 28.291 7.125 29.0762C7.125 29.9043 6.86523 30.543 6.3457 30.9922C5.83008 31.4375 5.08984 31.6602 4.125 31.6602H2.11523ZM2.11523 30.7402H4.13672C4.73828 30.7402 5.19922 30.5996 5.51953 30.3184C5.83984 30.0332 6 29.623 6 29.0879C6 28.5801 5.83984 28.1738 5.51953 27.8691C5.19922 27.5645 4.75977 27.4062 4.20117 27.3945H2.11523V30.7402ZM11.4551 29.6328C11.291 29.6055 11.1133 29.5918 10.9219 29.5918C10.2109 29.5918 9.72852 29.8945 9.47461 30.5V35H8.39062V28.6602H9.44531L9.46289 29.3926C9.81836 28.8262 10.3223 28.543 10.9746 28.543C11.1855 28.543 11.3457 28.5703 11.4551 28.625V29.6328ZM14.9707 35.1172C14.1113 35.1172 13.4121 34.8359 12.873 34.2734C12.334 33.707 12.0645 32.9512 12.0645 32.0059V31.8066C12.0645 31.1777 12.1836 30.6172 12.4219 30.125C12.6641 29.6289 13 29.2422 13.4297 28.9648C13.8633 28.6836 14.332 28.543 14.8359 28.543C15.6602 28.543 16.3008 28.8145 16.7578 29.3574C17.2148 29.9004 17.4434 30.6777 17.4434 31.6895V32.1406H13.1484C13.1641 32.7656 13.3457 33.2715 13.6934 33.6582C14.0449 34.041 14.4902 34.2324 15.0293 34.2324C15.4121 34.2324 15.7363 34.1543 16.002 33.998C16.2676 33.8418 16.5 33.6348 16.6992 33.377L17.3613 33.8926C16.8301 34.709 16.0332 35.1172 14.9707 35.1172ZM14.8359 29.4336C14.3984 29.4336 14.0312 29.5938 13.7344 29.9141C13.4375 30.2305 13.2539 30.6758 13.1836 31.25H16.3594V31.168C16.3281 30.6172 16.1797 30.1914 15.9141 29.8906C15.6484 29.5859 15.2891 29.4336 14.8359 29.4336ZM20.7129 33.5293L22.2832 28.6602H23.3906L21.1172 35H20.291L17.9941 28.6602H19.1016L20.7129 33.5293ZM26.9824 35.1172C26.123 35.1172 25.4238 34.8359 24.8848 34.2734C24.3457 33.707 24.0762 32.9512 24.0762 32.0059V31.8066C24.0762 31.1777 24.1953 30.6172 24.4336 30.125C24.6758 29.6289 25.0117 29.2422 25.4414 28.9648C25.875 28.6836 26.3438 28.543 26.8477 28.543C27.6719 28.543 28.3125 28.8145 28.7695 29.3574C29.2266 29.9004 29.4551 30.6777 29.4551 31.6895V32.1406H25.1602C25.1758 32.7656 25.3574 33.2715 25.7051 33.6582C26.0566 34.041 26.502 34.2324 27.041 34.2324C27.4238 34.2324 27.748 34.1543 28.0137 33.998C28.2793 33.8418 28.5117 33.6348 28.7109 33.377L29.373 33.8926C28.8418 34.709 28.0449 35.1172 26.9824 35.1172ZM26.8477 29.4336C26.4102 29.4336 26.043 29.5938 25.7461 29.9141C25.4492 30.2305 25.2656 30.6758 25.1953 31.25H28.3711V31.168C28.3398 30.6172 28.1914 30.1914 27.9258 29.8906C27.6602 29.5859 27.3008 29.4336 26.8477 29.4336ZM31.7402 28.6602L31.7754 29.457C32.2598 28.8477 32.8926 28.543 33.6738 28.543C35.0137 28.543 35.6895 29.2988 35.7012 30.8105V35H34.6172V30.8047C34.6133 30.3477 34.5078 30.0098 34.3008 29.791C34.0977 29.5723 33.7793 29.4629 33.3457 29.4629C32.9941 29.4629 32.6855 29.5566 32.4199 29.7441C32.1543 29.9316 31.9473 30.1777 31.7988 30.4824V35H30.7148V28.6602H31.7402ZM38.8066 27.125V28.6602H39.9902V29.498H38.8066V33.4297C38.8066 33.6836 38.8594 33.875 38.9648 34.0039C39.0703 34.1289 39.25 34.1914 39.5039 34.1914C39.6289 34.1914 39.8008 34.168 40.0195 34.1211V35C39.7344 35.0781 39.457 35.1172 39.1875 35.1172C38.7031 35.1172 38.3379 34.9707 38.0918 34.6777C37.8457 34.3848 37.7227 33.9688 37.7227 33.4297V29.498H36.5684V28.6602H37.7227V27.125H38.8066ZM42.4395 35H41.3555V28.6602H42.4395V35ZM41.2676 26.9785C41.2676 26.8027 41.3203 26.6543 41.4258 26.5332C41.5352 26.4121 41.6953 26.3516 41.9062 26.3516C42.1172 26.3516 42.2773 26.4121 42.3867 26.5332C42.4961 26.6543 42.5508 26.8027 42.5508 26.9785C42.5508 27.1543 42.4961 27.3008 42.3867 27.418C42.2773 27.5352 42.1172 27.5938 41.9062 27.5938C41.6953 27.5938 41.5352 27.5352 41.4258 27.418C41.3203 27.3008 41.2676 27.1543 41.2676 26.9785ZM43.8926 31.7715C43.8926 31.1504 44.0137 30.5918 44.2559 30.0957C44.502 29.5996 44.8418 29.2168 45.2754 28.9473C45.7129 28.6777 46.2109 28.543 46.7695 28.543C47.6328 28.543 48.3301 28.8418 48.8613 29.4395C49.3965 30.0371 49.6641 30.832 49.6641 31.8242V31.9004C49.6641 32.5176 49.5449 33.0723 49.3066 33.5645C49.0723 34.0527 48.7344 34.4336 48.293 34.707C47.8555 34.9805 47.3516 35.1172 46.7812 35.1172C45.9219 35.1172 45.2246 34.8184 44.6895 34.2207C44.1582 33.623 43.8926 32.832 43.8926 31.8477V31.7715ZM44.9824 31.9004C44.9824 32.6035 45.1445 33.168 45.4688 33.5938C45.7969 34.0195 46.2344 34.2324 46.7812 34.2324C47.332 34.2324 47.7695 34.0176 48.0938 33.5879C48.418 33.1543 48.5801 32.5488 48.5801 31.7715C48.5801 31.0762 48.4141 30.5137 48.082 30.084C47.7539 29.6504 47.3164 29.4336 46.7695 29.4336C46.2344 29.4336 45.8027 29.6465 45.4746 30.0723C45.1465 30.498 44.9824 31.1074 44.9824 31.9004ZM52.0488 28.6602L52.084 29.457C52.5684 28.8477 53.2012 28.543 53.9824 28.543C55.3223 28.543 55.998 29.2988 56.0098 30.8105V35H54.9258V30.8047C54.9219 30.3477 54.8164 30.0098 54.6094 29.791C54.4062 29.5723 54.0879 29.4629 53.6543 29.4629C53.3027 29.4629 52.9941 29.5566 52.7285 29.7441C52.4629 29.9316 52.2559 30.1777 52.1074 30.4824V35H51.0234V28.6602H52.0488Z" fill="#4F4F4F"/>
</svg>
