<svg width="32" height="32" viewBox="0 0 32 32" fill="none" xmlns="http://www.w3.org/2000/svg">
<path d="M30.4 11.7895H8V6.73684C8 4.87916 9.4352 3.36842 11.2 3.36842C12.9648 3.36842 14.4 4.87916 14.4 6.73684H17.6C17.6 3.02147 14.7296 0 11.2 0C7.6704 0 4.8 3.02147 4.8 6.73684V11.7895H1.6C0.7152 11.7895 0 12.5423 0 13.4737V16.8421C0 21.2312 2.6784 24.9651 6.4 26.3579V32H9.6V26.9474H22.4V32H25.6V26.3579C29.3216 24.9651 32 21.2312 32 16.8421V13.4737C32 12.5423 31.2848 11.7895 30.4 11.7895ZM28.8 16.8421C28.8 20.5575 25.9296 23.5789 22.4 23.5789H9.6C6.0704 23.5789 3.2 20.5575 3.2 16.8421V15.1579H28.8V16.8421Z" fill="#FB5757"/>
</svg>
