<svg width="67" height="32" viewBox="0 0 67 32" fill="none" xmlns="http://www.w3.org/2000/svg">
<path d="M0 9H2.48353V31.2872H0V9Z" fill="#109A1C"/>
<path d="M7.07214 19.2688H9.55568V31.2872H7.07214V19.2688Z" fill="#109A1C"/>
<path d="M14.1443 21.9912H16.6278V31.2872H14.1443V21.9912Z" fill="#109A1C"/>
<path d="M21.2164 0.278412H23.7V31.2872H21.2164V0.278412Z" fill="#109A1C"/>
<path d="M28.2886 9.37521H30.7722V31.2872H28.2886V9.37521Z" fill="#109A1C"/>
<path d="M35.3608 8.51202H37.8443V31.2872H35.3608V8.51202Z" fill="#109A1C"/>
<path d="M42.4329 9.00002H44.9165V31.2872H42.4329V9.00002Z" fill="#109A1C"/>
<path d="M49.5051 9.00002H51.9886V31.2872H49.5051V9.00002Z" fill="#109A1C"/>
<path d="M56.5773 19H59.0608V31.2872H56.5773V19Z" fill="#109A1C"/>
<path d="M63.6494 18.6712H66.1329V31.2872H63.6494V18.6712Z" fill="#109A1C"/>
</svg>
