<svg width="53" height="36" viewBox="0 0 53 36" fill="none" xmlns="http://www.w3.org/2000/svg">
<path d="M35 4H21C19.897 4 19 4.897 19 6V11H21V8L27.4 12.8C27.578 12.933 27.789 13 28 13C28.211 13 28.422 12.933 28.6 12.8L35 8V17H27V19H35C36.103 19 37 18.103 37 17V6C37 4.897 36.103 4 35 4ZM28 10.75L21.666 6H34.334L28 10.75Z" fill="#FB5757"/>
<path d="M17 12H24V14H17V12ZM19 15H25V17H19V15ZM22 18H26V20H22V18Z" fill="#FB5757"/>
<path d="M4.11914 29.5488H2.11523V33H0.984375V24.4688H3.80859C4.76953 24.4688 5.50781 24.6875 6.02344 25.125C6.54297 25.5625 6.80273 26.1992 6.80273 27.0352C6.80273 27.5664 6.6582 28.0293 6.36914 28.4238C6.08398 28.8184 5.68555 29.1133 5.17383 29.3086L7.17773 32.9297V33H5.9707L4.11914 29.5488ZM2.11523 28.6289H3.84375C4.40234 28.6289 4.8457 28.4844 5.17383 28.1953C5.50586 27.9062 5.67188 27.5195 5.67188 27.0352C5.67188 26.5078 5.51367 26.1035 5.19727 25.8223C4.88477 25.541 4.43164 25.3984 3.83789 25.3945H2.11523V28.6289ZM10.8457 33.1172C9.98633 33.1172 9.28711 32.8359 8.74805 32.2734C8.20898 31.707 7.93945 30.9512 7.93945 30.0059V29.8066C7.93945 29.1777 8.05859 28.6172 8.29688 28.125C8.53906 27.6289 8.875 27.2422 9.30469 26.9648C9.73828 26.6836 10.207 26.543 10.7109 26.543C11.5352 26.543 12.1758 26.8145 12.6328 27.3574C13.0898 27.9004 13.3184 28.6777 13.3184 29.6895V30.1406H9.02344C9.03906 30.7656 9.2207 31.2715 9.56836 31.6582C9.91992 32.041 10.3652 32.2324 10.9043 32.2324C11.2871 32.2324 11.6113 32.1543 11.877 31.998C12.1426 31.8418 12.375 31.6348 12.5742 31.377L13.2363 31.8926C12.7051 32.709 11.9082 33.1172 10.8457 33.1172ZM10.7109 27.4336C10.2734 27.4336 9.90625 27.5938 9.60938 27.9141C9.3125 28.2305 9.12891 28.6758 9.05859 29.25H12.2344V29.168C12.2031 28.6172 12.0547 28.1914 11.7891 27.8906C11.5234 27.5859 11.1641 27.4336 10.7109 27.4336ZM18.2695 31.3184C18.2695 31.0254 18.1582 30.7988 17.9355 30.6387C17.7168 30.4746 17.332 30.334 16.7812 30.2168C16.2344 30.0996 15.7988 29.959 15.4746 29.7949C15.1543 29.6309 14.916 29.4355 14.7598 29.209C14.6074 28.9824 14.5312 28.7129 14.5312 28.4004C14.5312 27.8809 14.75 27.4414 15.1875 27.082C15.6289 26.7227 16.1914 26.543 16.875 26.543C17.5938 26.543 18.1758 26.7285 18.6211 27.0996C19.0703 27.4707 19.2949 27.9453 19.2949 28.5234H18.2051C18.2051 28.2266 18.0781 27.9707 17.8242 27.7559C17.5742 27.541 17.2578 27.4336 16.875 27.4336C16.4805 27.4336 16.1719 27.5195 15.9492 27.6914C15.7266 27.8633 15.6152 28.0879 15.6152 28.3652C15.6152 28.627 15.7188 28.8242 15.9258 28.957C16.1328 29.0898 16.5059 29.2168 17.0449 29.3379C17.5879 29.459 18.0273 29.6035 18.3633 29.7715C18.6992 29.9395 18.9473 30.1426 19.1074 30.3809C19.2715 30.6152 19.3535 30.9023 19.3535 31.2422C19.3535 31.8086 19.127 32.2637 18.6738 32.6074C18.2207 32.9473 17.6328 33.1172 16.9102 33.1172C16.4023 33.1172 15.9531 33.0273 15.5625 32.8477C15.1719 32.668 14.8652 32.418 14.6426 32.0977C14.4238 31.7734 14.3145 31.4238 14.3145 31.0488H15.3984C15.418 31.4121 15.5625 31.7012 15.832 31.916C16.1055 32.127 16.4648 32.2324 16.9102 32.2324C17.3203 32.2324 17.6484 32.1504 17.8945 31.9863C18.1445 31.8184 18.2695 31.5957 18.2695 31.3184ZM26.1211 29.9004C26.1211 30.8652 25.9004 31.6426 25.459 32.2324C25.0176 32.8223 24.4199 33.1172 23.666 33.1172C22.8965 33.1172 22.291 32.873 21.8496 32.3848V35.4375H20.7656V26.6602H21.7559L21.8086 27.3633C22.25 26.8164 22.8633 26.543 23.6484 26.543C24.4102 26.543 25.0117 26.8301 25.4531 27.4043C25.8984 27.9785 26.1211 28.7773 26.1211 29.8008V29.9004ZM25.0371 29.7773C25.0371 29.0625 24.8848 28.498 24.5801 28.084C24.2754 27.6699 23.8574 27.4629 23.3262 27.4629C22.6699 27.4629 22.1777 27.7539 21.8496 28.3359V31.3652C22.1738 31.9434 22.6699 32.2324 23.3379 32.2324C23.8574 32.2324 24.2695 32.0273 24.5742 31.6172C24.8828 31.2031 25.0371 30.5898 25.0371 29.7773ZM27.2168 29.7715C27.2168 29.1504 27.3379 28.5918 27.5801 28.0957C27.8262 27.5996 28.166 27.2168 28.5996 26.9473C29.0371 26.6777 29.5352 26.543 30.0938 26.543C30.957 26.543 31.6543 26.8418 32.1855 27.4395C32.7207 28.0371 32.9883 28.832 32.9883 29.8242V29.9004C32.9883 30.5176 32.8691 31.0723 32.6309 31.5645C32.3965 32.0527 32.0586 32.4336 31.6172 32.707C31.1797 32.9805 30.6758 33.1172 30.1055 33.1172C29.2461 33.1172 28.5488 32.8184 28.0137 32.2207C27.4824 31.623 27.2168 30.832 27.2168 29.8477V29.7715ZM28.3066 29.9004C28.3066 30.6035 28.4688 31.168 28.793 31.5938C29.1211 32.0195 29.5586 32.2324 30.1055 32.2324C30.6562 32.2324 31.0938 32.0176 31.418 31.5879C31.7422 31.1543 31.9043 30.5488 31.9043 29.7715C31.9043 29.0762 31.7383 28.5137 31.4062 28.084C31.0781 27.6504 30.6406 27.4336 30.0938 27.4336C29.5586 27.4336 29.127 27.6465 28.7988 28.0723C28.4707 28.498 28.3066 29.1074 28.3066 29.9004ZM35.373 26.6602L35.4082 27.457C35.8926 26.8477 36.5254 26.543 37.3066 26.543C38.6465 26.543 39.3223 27.2988 39.334 28.8105V33H38.25V28.8047C38.2461 28.3477 38.1406 28.0098 37.9336 27.791C37.7305 27.5723 37.4121 27.4629 36.9785 27.4629C36.627 27.4629 36.3184 27.5566 36.0527 27.7441C35.7871 27.9316 35.5801 28.1777 35.4316 28.4824V33H34.3477V26.6602H35.373ZM44.6602 31.3184C44.6602 31.0254 44.5488 30.7988 44.3262 30.6387C44.1074 30.4746 43.7227 30.334 43.1719 30.2168C42.625 30.0996 42.1895 29.959 41.8652 29.7949C41.5449 29.6309 41.3066 29.4355 41.1504 29.209C40.998 28.9824 40.9219 28.7129 40.9219 28.4004C40.9219 27.8809 41.1406 27.4414 41.5781 27.082C42.0195 26.7227 42.582 26.543 43.2656 26.543C43.9844 26.543 44.5664 26.7285 45.0117 27.0996C45.4609 27.4707 45.6855 27.9453 45.6855 28.5234H44.5957C44.5957 28.2266 44.4688 27.9707 44.2148 27.7559C43.9648 27.541 43.6484 27.4336 43.2656 27.4336C42.8711 27.4336 42.5625 27.5195 42.3398 27.6914C42.1172 27.8633 42.0059 28.0879 42.0059 28.3652C42.0059 28.627 42.1094 28.8242 42.3164 28.957C42.5234 29.0898 42.8965 29.2168 43.4355 29.3379C43.9785 29.459 44.418 29.6035 44.7539 29.7715C45.0898 29.9395 45.3379 30.1426 45.498 30.3809C45.6621 30.6152 45.7441 30.9023 45.7441 31.2422C45.7441 31.8086 45.5176 32.2637 45.0645 32.6074C44.6113 32.9473 44.0234 33.1172 43.3008 33.1172C42.793 33.1172 42.3438 33.0273 41.9531 32.8477C41.5625 32.668 41.2559 32.418 41.0332 32.0977C40.8145 31.7734 40.7051 31.4238 40.7051 31.0488H41.7891C41.8086 31.4121 41.9531 31.7012 42.2227 31.916C42.4961 32.127 42.8555 32.2324 43.3008 32.2324C43.7109 32.2324 44.0391 32.1504 44.2852 31.9863C44.5352 31.8184 44.6602 31.5957 44.6602 31.3184ZM49.7871 33.1172C48.9277 33.1172 48.2285 32.8359 47.6895 32.2734C47.1504 31.707 46.8809 30.9512 46.8809 30.0059V29.8066C46.8809 29.1777 47 28.6172 47.2383 28.125C47.4805 27.6289 47.8164 27.2422 48.2461 26.9648C48.6797 26.6836 49.1484 26.543 49.6523 26.543C50.4766 26.543 51.1172 26.8145 51.5742 27.3574C52.0312 27.9004 52.2598 28.6777 52.2598 29.6895V30.1406H47.9648C47.9805 30.7656 48.1621 31.2715 48.5098 31.6582C48.8613 32.041 49.3066 32.2324 49.8457 32.2324C50.2285 32.2324 50.5527 32.1543 50.8184 31.998C51.084 31.8418 51.3164 31.6348 51.5156 31.377L52.1777 31.8926C51.6465 32.709 50.8496 33.1172 49.7871 33.1172ZM49.6523 27.4336C49.2148 27.4336 48.8477 27.5938 48.5508 27.9141C48.2539 28.2305 48.0703 28.6758 48 29.25H51.1758V29.168C51.1445 28.6172 50.9961 28.1914 50.7305 27.8906C50.4648 27.5859 50.1055 27.4336 49.6523 27.4336Z" fill="#4F4F4F"/>
</svg>
