<?xml version="1.0" encoding="UTF-8" standalone="no"?><!DOCTYPE svg PUBLIC "-//W3C//DTD SVG 1.1//EN" "http://www.w3.org/Graphics/SVG/1.1/DTD/svg11.dtd"><svg width="100%" height="100%" viewBox="0 0 76 75" version="1.1" xmlns="http://www.w3.org/2000/svg" xmlns:xlink="http://www.w3.org/1999/xlink" xml:space="preserve" xmlns:serif="http://www.serif.com/" style="fill-rule:evenodd;clip-rule:evenodd;stroke-linejoin:round;stroke-miterlimit:1.41421;"><path d="M2.132,25.221c0.001,-0.003 0.002,-0.006 0.003,-0.009c0.088,-0.247 0.179,-0.494 0.272,-0.74c0.096,-0.26 0.196,-0.516 0.3,-0.77c0.085,-0.214 0.173,-0.426 0.262,-0.637c0.03,-0.076 0.06,-0.149 0.095,-0.22c0.088,-0.209 0.179,-0.418 0.272,-0.624c0.005,-0.013 0.012,-0.025 0.018,-0.038c0.226,-0.501 0.463,-0.994 0.712,-1.482c0.123,-0.245 0.249,-0.486 0.38,-0.728c0.108,-0.204 0.219,-0.407 0.333,-0.609c0.153,-0.275 0.309,-0.546 0.47,-0.816c0.121,-0.206 0.247,-0.41 0.37,-0.614c0.028,-0.048 0.058,-0.093 0.088,-0.141c0.134,-0.212 0.267,-0.422 0.406,-0.634c0.027,-0.043 0.055,-0.088 0.085,-0.131c0.121,-0.184 0.242,-0.365 0.368,-0.546c0.128,-0.192 0.259,-0.378 0.392,-0.567c0.003,-0.004 0.008,-0.007 0.011,-0.012c0.063,-0.091 0.128,-0.182 0.193,-0.27c0.232,-0.324 0.471,-0.644 0.715,-0.957c0.061,-0.075 0.119,-0.15 0.179,-0.226c0.466,-0.596 0.949,-1.175 1.453,-1.74c0.065,-0.073 0.13,-0.145 0.196,-0.218c0.843,-0.94 1.734,-1.833 2.668,-2.681c0.111,-0.101 0.224,-0.202 0.338,-0.303c0.455,-0.407 0.924,-0.802 1.404,-1.187c0.111,-0.089 0.222,-0.177 0.335,-0.265c0.355,-0.282 0.718,-0.557 1.085,-0.823c0.108,-0.081 0.219,-0.158 0.33,-0.236c0.382,-0.275 0.77,-0.542 1.163,-0.798c0.194,-0.129 0.39,-0.257 0.589,-0.381c0.196,-0.126 0.393,-0.246 0.592,-0.367c0.08,-0.048 0.163,-0.099 0.244,-0.147c0.906,-0.541 1.835,-1.044 2.789,-1.508c0.171,-0.085 0.342,-0.166 0.516,-0.246c0.015,-0.008 0.03,-0.015 0.048,-0.023c0.105,-0.05 0.214,-0.098 0.322,-0.149c0.171,-0.078 0.34,-0.153 0.514,-0.228c0.088,-0.038 0.179,-0.078 0.266,-0.113c0.353,-0.154 0.71,-0.3 1.068,-0.441c0.108,-0.043 0.216,-0.083 0.325,-0.126c0.015,-0.005 0.03,-0.011 0.045,-0.017c0.207,-0.079 0.413,-0.157 0.622,-0.23l0.038,-0.015c0.213,-0.076 0.427,-0.151 0.644,-0.224c0.007,-0.002 0.012,-0.002 0.018,-0.005c0.1,-0.035 0.201,-0.067 0.301,-0.101c0.335,-0.11 0.673,-0.216 1.01,-0.314c0.149,-0.046 0.297,-0.088 0.446,-0.131c0.252,-0.07 0.505,-0.142 0.76,-0.207c0.196,-0.053 0.395,-0.103 0.594,-0.15c0.677,-0.166 1.364,-0.313 2.057,-0.441c0.178,-0.035 0.36,-0.068 0.541,-0.098c0.219,-0.036 0.438,-0.071 0.659,-0.104c0.146,-0.024 0.295,-0.045 0.444,-0.065c0.271,-0.04 0.543,-0.073 0.818,-0.106c0.163,-0.02 0.33,-0.038 0.496,-0.056c0.224,-0.024 0.448,-0.044 0.672,-0.065c0.108,-0.007 0.216,-0.018 0.327,-0.024c0.02,-0.003 0.043,-0.006 0.063,-0.006c0.32,-0.025 0.639,-0.045 0.962,-0.06c0.04,-0.003 0.08,-0.006 0.12,-0.006c0.109,-0.006 0.217,-0.011 0.325,-0.014c0.186,-0.008 0.37,-0.016 0.557,-0.018c0.09,-0.003 0.178,-0.005 0.269,-0.005c0.224,-0.005 0.448,-0.008 0.672,-0.008c0.224,0 0.448,0.003 0.672,0.008c0.091,0 0.179,0.002 0.269,0.005c0.187,0.002 0.371,0.01 0.557,0.018c0.108,0.003 0.216,0.008 0.324,0.014c0.041,0 0.081,0.003 0.121,0.006c0.323,0.015 0.642,0.035 0.962,0.06c0.02,0 0.043,0.003 0.063,0.006c0.111,0.006 0.219,0.017 0.327,0.024c0.225,0.021 0.448,0.041 0.673,0.065c0.166,0.018 0.332,0.036 0.495,0.056c0.274,0.033 0.547,0.066 0.818,0.106c0.149,0.02 0.297,0.041 0.444,0.065c0.191,0.028 0.379,0.059 0.568,0.089l0.091,0.015c0.181,0.03 0.362,0.063 0.541,0.098c0.692,0.128 1.38,0.275 2.057,0.441c0.199,0.047 0.398,0.097 0.594,0.15c0.254,0.065 0.509,0.137 0.76,0.207c0.148,0.043 0.298,0.085 0.446,0.131c0.337,0.098 0.675,0.204 1.009,0.314c0.101,0.034 0.202,0.066 0.303,0.101c0.005,0.003 0.01,0.003 0.017,0.005c0.216,0.073 0.431,0.148 0.645,0.224c0.013,0.005 0.024,0.01 0.037,0.015c0.209,0.073 0.416,0.151 0.622,0.23c0.015,0.006 0.03,0.012 0.045,0.017c0.108,0.043 0.217,0.083 0.325,0.126c0.358,0.141 0.715,0.287 1.068,0.441c0.087,0.035 0.178,0.075 0.266,0.113c0.174,0.075 0.343,0.15 0.514,0.228c0.108,0.051 0.217,0.099 0.322,0.149c0.018,0.008 0.033,0.015 0.048,0.023c0.174,0.08 0.345,0.161 0.516,0.246c0.954,0.464 1.883,0.967 2.79,1.508c0.08,0.048 0.163,0.099 0.244,0.147c0.198,0.121 0.394,0.241 0.591,0.367c0.199,0.124 0.395,0.252 0.589,0.381c0.393,0.256 0.781,0.523 1.163,0.798c0.111,0.078 0.221,0.155 0.33,0.236c0.368,0.266 0.73,0.541 1.085,0.823c0.113,0.088 0.224,0.176 0.335,0.265c0.481,0.385 0.949,0.78 1.405,1.187c0.113,0.101 0.226,0.202 0.337,0.303c0.933,0.848 1.825,1.741 2.668,2.681c0.065,0.073 0.131,0.145 0.196,0.218c0.504,0.565 0.987,1.144 1.453,1.74c0.061,0.076 0.118,0.151 0.179,0.226c0.244,0.313 0.483,0.633 0.715,0.957c0.065,0.088 0.13,0.179 0.193,0.27c0.003,0.005 0.008,0.008 0.011,0.012c0.133,0.189 0.263,0.375 0.392,0.567c0.126,0.181 0.247,0.362 0.368,0.546c0.03,0.043 0.058,0.088 0.085,0.131c0.139,0.212 0.272,0.422 0.406,0.634c0.03,0.048 0.06,0.093 0.088,0.141c0.123,0.204 0.249,0.408 0.37,0.614c0.161,0.27 0.317,0.541 0.47,0.816c0.114,0.202 0.225,0.405 0.332,0.609c0.131,0.242 0.257,0.483 0.381,0.728c0.249,0.488 0.486,0.981 0.712,1.482c0.005,0.013 0.013,0.025 0.018,0.038c0.094,0.206 0.183,0.415 0.274,0.624c0.033,0.071 0.064,0.144 0.094,0.22c0.088,0.211 0.176,0.423 0.262,0.637c0.102,0.254 0.203,0.51 0.299,0.77c0.093,0.246 0.184,0.493 0.272,0.74c0.005,0.012 0.008,0.025 0.013,0.037c0.09,0.262 0.178,0.524 0.266,0.789c0.005,0.017 0.01,0.035 0.018,0.052c0.075,0.235 0.148,0.471 0.222,0.708c0.017,0.06 0.035,0.118 0.052,0.179c0.063,0.209 0.123,0.417 0.182,0.629c0.024,0.088 0.05,0.179 0.072,0.266c0.051,0.187 0.101,0.374 0.149,0.562c0.003,0.01 0.005,0.021 0.007,0.03c0.064,0.254 0.126,0.511 0.187,0.771c0.003,0.008 0.003,0.014 0.005,0.025c0.053,0.234 0.105,0.468 0.153,0.702c0.016,0.063 0.028,0.126 0.041,0.189c0.007,0.033 0.012,0.063 0.02,0.096c0.04,0.204 0.081,0.41 0.118,0.614c0.006,0.027 0.011,0.055 0.015,0.086c0.048,0.254 0.091,0.51 0.133,0.767c0.006,0.031 0.011,0.061 0.013,0.093c0.038,0.222 0.071,0.448 0.101,0.673c0.01,0.059 0.017,0.12 0.025,0.181c0.028,0.196 0.053,0.392 0.076,0.591c0.012,0.106 0.025,0.212 0.035,0.318c0.025,0.219 0.048,0.437 0.068,0.657c0.03,0.324 0.055,0.649 0.078,0.977c0.015,0.204 0.025,0.407 0.035,0.614c0.005,0.085 0.011,0.174 0.013,0.259c0.009,0.237 0.02,0.47 0.025,0.71c0.002,0.05 0.002,0.098 0.002,0.148c0.008,0.274 0.011,0.549 0.011,0.826c0,0.241 -0.003,0.484 -0.008,0.725c-0.005,0.239 -0.01,0.481 -0.021,0.72c-0.004,0.171 -0.011,0.339 -0.022,0.511c-0.005,0.101 -0.01,0.201 -0.018,0.302c-0.009,0.188 -0.022,0.378 -0.037,0.566c0,0.028 -0.003,0.053 -0.006,0.081c-0.017,0.227 -0.035,0.454 -0.057,0.68c-0.021,0.227 -0.043,0.45 -0.071,0.677c-0.02,0.183 -0.04,0.365 -0.065,0.546c-0.018,0.154 -0.038,0.304 -0.06,0.459c-0.003,0.014 -0.003,0.029 -0.008,0.045c-0.018,0.145 -0.04,0.292 -0.063,0.437c-0.005,0.03 -0.008,0.061 -0.012,0.089c-0.028,0.184 -0.058,0.364 -0.091,0.549c-0.038,0.228 -0.08,0.46 -0.123,0.689c-0.051,0.265 -0.104,0.529 -0.16,0.79c-0.035,0.162 -0.07,0.323 -0.105,0.482c-0.065,0.294 -0.136,0.586 -0.209,0.878c-0.035,0.141 -0.073,0.282 -0.11,0.423c-0.023,0.09 -0.048,0.184 -0.074,0.274c-0.047,0.179 -0.095,0.355 -0.148,0.531c-0.063,0.222 -0.129,0.444 -0.196,0.662c-0.069,0.222 -0.136,0.439 -0.209,0.658c-0.069,0.209 -0.136,0.415 -0.209,0.622c-0.078,0.228 -0.161,0.455 -0.244,0.681c-0.074,0.197 -0.147,0.391 -0.222,0.584c-0.08,0.204 -0.161,0.409 -0.244,0.613c-0.058,0.14 -0.116,0.282 -0.176,0.422c-0.061,0.144 -0.121,0.285 -0.182,0.423c-0.07,0.161 -0.14,0.32 -0.214,0.479c-0.092,0.206 -0.188,0.413 -0.287,0.616c-0.088,0.191 -0.181,0.381 -0.274,0.566c-0.078,0.16 -0.158,0.318 -0.241,0.477c-0.059,0.113 -0.116,0.227 -0.177,0.34c-0.144,0.271 -0.289,0.541 -0.44,0.807c-0.074,0.131 -0.147,0.262 -0.222,0.391c-0.152,0.264 -0.305,0.525 -0.463,0.785c-0.078,0.128 -0.159,0.259 -0.239,0.388c-0.158,0.257 -0.323,0.514 -0.491,0.765c-0.084,0.126 -0.167,0.252 -0.251,0.378c-0.169,0.251 -0.343,0.5 -0.52,0.748c-0.088,0.123 -0.176,0.246 -0.264,0.367c-0.181,0.249 -0.365,0.496 -0.551,0.737c-0.275,0.357 -0.554,0.708 -0.841,1.055c-0.096,0.116 -0.192,0.232 -0.289,0.347c-0.099,0.117 -0.197,0.232 -0.295,0.345c-0.101,0.113 -0.198,0.227 -0.3,0.34c-0.101,0.113 -0.201,0.227 -0.302,0.338c-0.304,0.335 -0.616,0.664 -0.931,0.989c-0.211,0.217 -0.425,0.431 -0.642,0.642c-0.108,0.103 -0.217,0.209 -0.324,0.312c-0.112,0.106 -0.222,0.209 -0.33,0.312c-0.222,0.207 -0.446,0.411 -0.672,0.609c-0.114,0.101 -0.227,0.199 -0.34,0.3c-0.227,0.199 -0.459,0.393 -0.692,0.584c-0.351,0.29 -0.706,0.571 -1.066,0.849c-0.12,0.09 -0.241,0.183 -0.362,0.274c-0.605,0.453 -1.224,0.889 -1.858,1.304c-0.116,0.075 -0.229,0.151 -0.345,0.226c-0.425,0.272 -0.856,0.536 -1.291,0.791c-0.219,0.131 -0.441,0.256 -0.662,0.382c-0.02,0.011 -0.04,0.024 -0.063,0.035c-0.118,0.066 -0.237,0.131 -0.355,0.195c-0.149,0.083 -0.297,0.161 -0.446,0.239c-0.186,0.097 -0.373,0.196 -0.561,0.289c-0.217,0.111 -0.433,0.217 -0.653,0.322c-0.203,0.099 -0.41,0.196 -0.616,0.29c-0.206,0.096 -0.413,0.189 -0.622,0.28c-0.053,0.022 -0.105,0.047 -0.161,0.067c-2.733,1.183 -5.639,2.052 -8.665,2.56l0,-8.39c0,-2.608 1.584,-4.843 3.845,-5.8c8.853,-3.899 15.036,-12.753 15.036,-23.049c0,-11.731 -8.024,-21.587 -18.881,-24.381c-2.011,-0.518 -4.12,-0.793 -6.293,-0.793c-2.172,0 -4.282,0.275 -6.293,0.793c-10.858,2.794 -18.881,12.65 -18.881,24.381l0,0.008c0.003,7.327 3.134,13.926 8.136,18.52c0.036,0.035 0.074,0.073 0.111,0.106c0.121,0.115 0.244,0.227 0.373,0.327c0.007,0.01 0.015,0.015 0.022,0.02c1.113,0.896 2.538,1.422 4.086,1.387c3.446,-0.076 6.153,-2.996 6.153,-6.442l0,-7.64c0,-3.471 2.814,-6.286 6.286,-6.286l6.3,0l0,14.077c0,4.078 -1.294,7.854 -3.494,10.941c-2.23,3.134 -5.397,5.558 -9.092,6.864c-1.969,0.695 -4.086,1.075 -6.294,1.075c-4.662,0 -8.927,-1.689 -12.219,-4.491c-0.196,-0.168 -0.39,-0.34 -0.582,-0.516c-0.068,-0.06 -0.133,-0.121 -0.198,-0.183c-0.008,-0.005 -0.018,-0.016 -0.026,-0.023l-0.347,-0.325c-2.193,-2.074 -4.136,-4.41 -5.78,-6.958c-0.088,-0.134 -0.174,-0.266 -0.257,-0.402c-0.428,-0.675 -0.831,-1.367 -1.211,-2.07c-0.153,-0.282 -0.302,-0.566 -0.448,-0.851c-0.201,-0.39 -0.392,-0.785 -0.579,-1.183c-0.053,-0.111 -0.103,-0.224 -0.156,-0.338c-0.707,-1.557 -1.314,-3.172 -1.807,-4.833c-0.134,-0.445 -0.257,-0.896 -0.375,-1.346c-0.124,-0.479 -0.237,-0.962 -0.343,-1.446c-0.05,-0.246 -0.101,-0.49 -0.151,-0.74c-0.012,-0.075 -0.027,-0.15 -0.042,-0.228c-0.031,-0.164 -0.061,-0.328 -0.089,-0.492c-0.027,-0.156 -0.055,-0.314 -0.08,-0.475c-0.043,-0.257 -0.081,-0.516 -0.116,-0.776c-0.023,-0.158 -0.045,-0.314 -0.063,-0.473c-0.02,-0.146 -0.038,-0.292 -0.053,-0.438c-0.012,-0.103 -0.025,-0.207 -0.035,-0.312c-0.02,-0.166 -0.035,-0.332 -0.05,-0.501c-0.013,-0.113 -0.023,-0.227 -0.031,-0.34c-0.01,-0.103 -0.017,-0.206 -0.025,-0.312c-0.01,-0.119 -0.017,-0.237 -0.025,-0.355c-0.013,-0.158 -0.02,-0.314 -0.028,-0.474c-0.012,-0.206 -0.022,-0.41 -0.03,-0.616c-0.005,-0.161 -0.01,-0.325 -0.015,-0.486c-0.007,-0.324 -0.013,-0.65 -0.013,-0.974c0,-0.277 0.003,-0.552 0.011,-0.826c0,-0.05 0,-0.098 0.002,-0.148c0.005,-0.24 0.015,-0.473 0.025,-0.71c0.003,-0.085 0.008,-0.174 0.013,-0.259c0.01,-0.207 0.02,-0.41 0.035,-0.614c0.023,-0.328 0.048,-0.653 0.078,-0.977c0.02,-0.22 0.043,-0.438 0.068,-0.657c0.01,-0.106 0.023,-0.212 0.035,-0.318c0.023,-0.199 0.048,-0.395 0.076,-0.591c0.007,-0.061 0.015,-0.122 0.025,-0.181c0.03,-0.225 0.063,-0.451 0.101,-0.673c0.002,-0.032 0.007,-0.062 0.012,-0.093c0.043,-0.257 0.086,-0.513 0.134,-0.767c0.005,-0.031 0.01,-0.059 0.015,-0.086c0.038,-0.204 0.078,-0.41 0.118,-0.614c0.008,-0.033 0.013,-0.063 0.02,-0.096c0.013,-0.063 0.025,-0.126 0.04,-0.189c0.048,-0.234 0.101,-0.468 0.154,-0.702c0.003,-0.011 0.003,-0.017 0.005,-0.025c0.061,-0.26 0.124,-0.517 0.187,-0.771c0.002,-0.009 0.004,-0.02 0.007,-0.03c0.048,-0.188 0.098,-0.375 0.148,-0.562c0.023,-0.087 0.048,-0.178 0.074,-0.266c0.057,-0.212 0.118,-0.42 0.181,-0.629c0.017,-0.061 0.035,-0.119 0.052,-0.179c0.074,-0.237 0.146,-0.473 0.222,-0.708c0.007,-0.017 0.013,-0.035 0.018,-0.052c0.088,-0.265 0.176,-0.527 0.267,-0.789c0.001,-0.003 0.002,-0.006 0.003,-0.009l0.006,-0.019Zm41.922,9.831l-7.237,0c-3.997,0 -7.238,-3.24 -7.238,-7.237c0,-3.997 3.241,-7.238 7.238,-7.238c3.997,0 7.237,3.241 7.237,7.238l0,7.237Z" style="fill:#ff2e2e;fill-rule:nonzero;"/></svg>