<svg width="64" height="64" viewBox="0 0 64 64" fill="none" xmlns="http://www.w3.org/2000/svg">
<rect width="64" height="64" rx="4" fill="#E5E5E5"/>
<path d="M59.4838 33.842L53.7778 28.1731V13.25C53.7778 12.7859 53.6139 12.3408 53.3222 12.0126C53.0304 11.6844 52.6348 11.5 52.2222 11.5H46C45.5874 11.5 45.1918 11.6844 44.9001 12.0126C44.6083 12.3408 44.4444 12.7859 44.4444 13.25V18.9014L34.6036 9.12656C33.9931 8.50422 32.8293 8 32 8C31.1707 8 30.0108 8.50422 29.4003 9.12656L4.51139 33.8453C4.20473 34.1939 4.02272 34.6571 4 35.1469C4.01987 35.5746 4.159 35.9845 4.39764 36.3183L6.47917 38.9203C6.80358 39.2478 7.21214 39.4508 7.64583 39.5C8.02183 39.4577 8.38081 39.3025 8.68514 39.0505L10.231 37.5192V60.5C10.231 61.4283 10.5587 62.3185 11.1422 62.9749C11.7256 63.6313 12.517 64 13.3421 64H50.6667C51.4918 64 52.2831 63.6313 52.8666 62.9749C53.45 62.3185 53.7778 61.4283 53.7778 60.5V37.5181L55.3246 39.0494C55.6303 39.301 55.99 39.4566 56.3668 39.5C56.7966 39.4495 57.2009 39.246 57.5208 38.9192L59.6024 36.315C59.8258 35.9725 59.9631 35.5686 60 35.1458C59.9553 34.6605 59.7745 34.2039 59.4838 33.842V33.842ZM32 27.25C33.2306 27.25 34.4336 27.6605 35.4569 28.4297C36.4801 29.1989 37.2776 30.2921 37.7486 31.5712C38.2195 32.8503 38.3428 34.2578 38.1027 35.6156C37.8626 36.9735 37.27 38.2208 36.3998 39.1997C35.5296 40.1787 34.4209 40.8454 33.2139 41.1155C32.0069 41.3856 30.7558 41.247 29.6189 40.7172C28.4819 40.1873 27.5101 39.2901 26.8264 38.139C26.1427 36.9878 25.7778 35.6345 25.7778 34.25C25.7778 32.3935 26.4333 30.613 27.6002 29.3003C28.7671 27.9875 30.3498 27.25 32 27.25ZM42.8889 57H21.1111C20.6986 57 20.3029 56.8156 20.0112 56.4874C19.7194 56.1592 19.5556 55.7141 19.5556 55.25C19.5556 52.4652 20.5389 49.7945 22.2892 47.8254C24.0396 45.8562 26.4135 44.75 28.8889 44.75H35.1111C37.5865 44.75 39.9604 45.8562 41.7108 47.8254C43.4611 49.7945 44.4444 52.4652 44.4444 55.25C44.4444 55.7141 44.2806 56.1592 43.9888 56.4874C43.6971 56.8156 43.3014 57 42.8889 57Z" fill="#C4C4C4"/>
</svg>
