<svg width="64" height="64" viewBox="0 0 64 64" fill="none" xmlns="http://www.w3.org/2000/svg">
<rect width="64" height="64" rx="4" fill="#E5E5E5"/>
<g clip-path="url(#clip0)">
<path d="M4 22.023V50H9.6C10.3426 50 11.0548 49.6313 11.5799 48.9749C12.105 48.3185 12.4 47.4283 12.4 46.5V28.125L6.08513 22.023H4ZM8.2 43.011C8.47689 43.011 8.74757 43.1136 8.9778 43.3059C9.20803 43.4982 9.38747 43.7715 9.49343 44.0913C9.59939 44.411 9.62712 44.7629 9.5731 45.1024C9.51908 45.4418 9.38574 45.7537 9.18995 45.9984C8.99416 46.2431 8.7447 46.4098 8.47313 46.4773C8.20155 46.5449 7.92006 46.5102 7.66424 46.3778C7.40843 46.2453 7.18978 46.021 7.03594 45.7332C6.88211 45.4454 6.8 45.1071 6.8 44.761C6.8 44.2968 6.9475 43.8517 7.21005 43.5235C7.4726 43.1953 7.8287 43.011 8.2 43.011V43.011ZM15.2 46.4902H16.8013L24.72 55.4469C25.8724 56.6168 27.3493 57.1668 28.826 56.976C30.3027 56.7853 31.6583 55.8694 32.595 54.4297L32.6125 54.4078L34.1796 56.1032C34.511 56.4401 34.8922 56.6922 35.3015 56.8449C35.7108 56.9977 36.1401 57.0481 36.565 56.9934C36.9899 56.9386 37.402 56.7797 37.7778 56.5258C38.1536 56.2719 38.4856 55.928 38.755 55.5136L39.525 54.3302L15.2 30.8288V46.4902ZM51.6 22.023V46.511C51.6 47.4392 51.895 48.3295 52.4201 48.9858C52.9452 49.6422 53.6574 50.011 54.4 50.011H60V22.023H51.6ZM55.8 46.511C55.5231 46.511 55.2524 46.4083 55.0222 46.216C54.792 46.0237 54.6125 45.7504 54.5066 45.4307C54.4006 45.1109 54.3729 44.759 54.4269 44.4196C54.4809 44.0801 54.6143 43.7683 54.8101 43.5235C55.0058 43.2788 55.2553 43.1121 55.5269 43.0446C55.7984 42.9771 56.0799 43.0117 56.3358 43.1442C56.5916 43.2766 56.8102 43.5009 56.9641 43.7887C57.1179 44.0765 57.2 44.4148 57.2 44.761C57.2 45.2251 57.0525 45.6702 56.79 45.9984C56.5274 46.3266 56.1713 46.511 55.8 46.511ZM30.5414 30.1671L35.7546 24.1985C36.03 23.8966 36.389 23.7416 36.7548 23.7668C37.1205 23.7919 37.4638 23.9953 37.7109 24.3332C37.9581 24.671 38.0895 25.1165 38.077 25.5741C38.0644 26.0317 37.9089 26.4649 37.6438 26.7808L35.3609 29.3938L48.1 42.3219C48.3474 42.5804 48.5787 42.862 48.7921 43.1641V22L44.0138 16.0292C43.755 15.7027 43.447 15.4436 43.1075 15.2669C42.7681 15.0902 42.404 14.9995 42.0363 15H34.52C33.8201 14.9999 33.1456 15.3282 32.63 15.9199L24.9239 24.7399L22.6804 22.5732L29.2954 15H21.9638C21.2215 15.0019 20.5102 15.3721 19.9863 16.0292L18.2065 18.2507L7.97863 8.36972C7.83344 8.22835 7.66738 8.12416 7.48995 8.06309C7.31252 8.00202 7.1272 7.98529 6.94458 8.01383C6.76197 8.04238 6.58566 8.11565 6.42572 8.22945C6.26578 8.34325 6.12537 8.49536 6.0125 8.67706L4.29575 11.441C4.0679 11.8074 3.9658 12.2719 4.01191 12.7323C4.05802 13.1928 4.24856 13.6115 4.54163 13.8964L56.0214 63.6314C56.1666 63.7728 56.3326 63.877 56.5101 63.9381C56.6875 63.9991 56.8728 64.0159 57.0554 63.9873C57.238 63.9588 57.4144 63.8855 57.5743 63.7717C57.7342 63.6579 57.8746 63.5058 57.9875 63.3241L59.7069 60.5602C59.9346 60.1937 60.0366 59.7291 59.9903 59.2686C59.944 58.8081 59.7533 58.3894 59.4601 58.1047L30.5414 30.1671Z" fill="#C4C4C4"/>
</g>
<defs>
<clipPath id="clip0">
<rect x="4" y="8" width="56" height="56" fill="white"/>
</clipPath>
</defs>
</svg>
