<svg width="32" height="32" viewBox="0 0 32 32" fill="none" xmlns="http://www.w3.org/2000/svg">
<path d="M23.952 1.73141C23.7808 0.746301 23.1728 0.0400415 22.4608 0.0034714C21.7696 -0.0536693 21.1072 0.600021 20.8832 1.56456L15.7856 23.4015L11.0624 8.21574C10.8016 7.37691 10.1952 6.82608 9.5696 6.85807C8.9264 6.87636 8.352 7.44091 8.1136 8.29345L5.3168 18.2862H0V22.8575H5.3168C6.6336 22.8575 7.8 21.7284 8.2864 19.9844L9.6768 15.0201L14.536 30.6423C14.7952 31.472 15.3696 32 16 32C16.0256 32 16.0512 32 16.0768 31.9977C16.7376 31.9497 17.3104 31.3326 17.5168 30.4366L22.1792 10.4557L23.7456 19.3948C24.1008 21.4335 25.3776 22.8575 26.8496 22.8575H32V18.2862H26.848L23.952 1.73141Z" fill="#FB5757"/>
</svg>
