<svg width="58" height="38" viewBox="0 0 58 38" fill="none" xmlns="http://www.w3.org/2000/svg">
<path d="M33.97 4.757C33.863 4.326 33.483 4.017 33.038 4.001C32.606 3.976 32.192 4.262 32.052 4.684L28.866 14.238L25.914 7.594C25.751 7.227 25.372 6.986 24.981 7C24.579 7.008 24.22 7.255 24.071 7.628L22.323 12H19V14H22.323C23.146 14 23.875 13.506 24.179 12.743L25.048 10.571L28.085 17.406C28.247 17.769 28.606 18 29 18C29.016 18 29.032 18 29.048 17.999C29.461 17.978 29.819 17.708 29.948 17.316L32.862 8.574L33.841 12.485C34.063 13.377 34.861 14 35.781 14H39V12H35.78L33.97 4.757Z" fill="#FB5757"/>
<path d="M3.50391 31.1973C2.53906 30.9199 1.83594 30.5801 1.39453 30.1777C0.957031 29.7715 0.738281 29.2715 0.738281 28.6777C0.738281 28.0059 1.00586 27.4512 1.54102 27.0137C2.08008 26.5723 2.7793 26.3516 3.63867 26.3516C4.22461 26.3516 4.74609 26.4648 5.20312 26.6914C5.66406 26.918 6.01953 27.2305 6.26953 27.6289C6.52344 28.0273 6.65039 28.4629 6.65039 28.9355H5.51953C5.51953 28.4199 5.35547 28.0156 5.02734 27.7227C4.69922 27.4258 4.23633 27.2773 3.63867 27.2773C3.08398 27.2773 2.65039 27.4004 2.33789 27.6465C2.0293 27.8887 1.875 28.2266 1.875 28.6602C1.875 29.0078 2.02148 29.3027 2.31445 29.5449C2.61133 29.7832 3.11328 30.002 3.82031 30.2012C4.53125 30.4004 5.08594 30.6211 5.48438 30.8633C5.88672 31.1016 6.18359 31.3809 6.375 31.7012C6.57031 32.0215 6.66797 32.3984 6.66797 32.832C6.66797 33.5234 6.39844 34.0781 5.85938 34.4961C5.32031 34.9102 4.59961 35.1172 3.69727 35.1172C3.11133 35.1172 2.56445 35.0059 2.05664 34.7832C1.54883 34.5566 1.15625 34.248 0.878906 33.8574C0.605469 33.4668 0.46875 33.0234 0.46875 32.5273H1.59961C1.59961 33.043 1.78906 33.4512 2.16797 33.752C2.55078 34.0488 3.06055 34.1973 3.69727 34.1973C4.29102 34.1973 4.74609 34.0762 5.0625 33.834C5.37891 33.5918 5.53711 33.2617 5.53711 32.8438C5.53711 32.4258 5.39062 32.1035 5.09766 31.877C4.80469 31.6465 4.27344 31.4199 3.50391 31.1973ZM10.0195 33.4121L11.4961 28.6602H12.6562L10.1074 35.9785C9.71289 37.0332 9.08594 37.5605 8.22656 37.5605L8.02148 37.543L7.61719 37.4668V36.5879L7.91016 36.6113C8.27734 36.6113 8.5625 36.5371 8.76562 36.3887C8.97266 36.2402 9.14258 35.9688 9.27539 35.5742L9.51562 34.9297L7.25391 28.6602H8.4375L10.0195 33.4121ZM14.6484 28.6602L14.6777 29.3633C15.1426 28.8164 15.7695 28.543 16.5586 28.543C17.4453 28.543 18.0488 28.8828 18.3691 29.5625C18.5801 29.2578 18.8535 29.0117 19.1895 28.8242C19.5293 28.6367 19.9297 28.543 20.3906 28.543C21.7812 28.543 22.4883 29.2793 22.5117 30.752V35H21.4277V30.8164C21.4277 30.3633 21.3242 30.0254 21.1172 29.8027C20.9102 29.5762 20.5625 29.4629 20.0742 29.4629C19.6719 29.4629 19.3379 29.584 19.0723 29.8262C18.8066 30.0645 18.6523 30.3867 18.6094 30.793V35H17.5195V30.8457C17.5195 29.9238 17.0684 29.4629 16.166 29.4629C15.4551 29.4629 14.9688 29.7656 14.707 30.3711V35H13.623V28.6602H14.6484ZM29.5078 31.9004C29.5078 32.8652 29.2871 33.6426 28.8457 34.2324C28.4043 34.8223 27.8066 35.1172 27.0527 35.1172C26.2832 35.1172 25.6777 34.873 25.2363 34.3848V37.4375H24.1523V28.6602H25.1426L25.1953 29.3633C25.6367 28.8164 26.25 28.543 27.0352 28.543C27.7969 28.543 28.3984 28.8301 28.8398 29.4043C29.2852 29.9785 29.5078 30.7773 29.5078 31.8008V31.9004ZM28.4238 31.7773C28.4238 31.0625 28.2715 30.498 27.9668 30.084C27.6621 29.6699 27.2441 29.4629 26.7129 29.4629C26.0566 29.4629 25.5645 29.7539 25.2363 30.3359V33.3652C25.5605 33.9434 26.0566 34.2324 26.7246 34.2324C27.2441 34.2324 27.6562 34.0273 27.9609 33.6172C28.2695 33.2031 28.4238 32.5898 28.4238 31.7773ZM32.3613 27.125V28.6602H33.5449V29.498H32.3613V33.4297C32.3613 33.6836 32.4141 33.875 32.5195 34.0039C32.625 34.1289 32.8047 34.1914 33.0586 34.1914C33.1836 34.1914 33.3555 34.168 33.5742 34.1211V35C33.2891 35.0781 33.0117 35.1172 32.7422 35.1172C32.2578 35.1172 31.8926 34.9707 31.6465 34.6777C31.4004 34.3848 31.2773 33.9688 31.2773 33.4297V29.498H30.123V28.6602H31.2773V27.125H32.3613ZM34.4121 31.7715C34.4121 31.1504 34.5332 30.5918 34.7754 30.0957C35.0215 29.5996 35.3613 29.2168 35.7949 28.9473C36.2324 28.6777 36.7305 28.543 37.2891 28.543C38.1523 28.543 38.8496 28.8418 39.3809 29.4395C39.916 30.0371 40.1836 30.832 40.1836 31.8242V31.9004C40.1836 32.5176 40.0645 33.0723 39.8262 33.5645C39.5918 34.0527 39.2539 34.4336 38.8125 34.707C38.375 34.9805 37.8711 35.1172 37.3008 35.1172C36.4414 35.1172 35.7441 34.8184 35.209 34.2207C34.6777 33.623 34.4121 32.832 34.4121 31.8477V31.7715ZM35.502 31.9004C35.502 32.6035 35.6641 33.168 35.9883 33.5938C36.3164 34.0195 36.7539 34.2324 37.3008 34.2324C37.8516 34.2324 38.2891 34.0176 38.6133 33.5879C38.9375 33.1543 39.0996 32.5488 39.0996 31.7715C39.0996 31.0762 38.9336 30.5137 38.6016 30.084C38.2734 29.6504 37.8359 29.4336 37.2891 29.4336C36.7539 29.4336 36.3223 29.6465 35.9941 30.0723C35.666 30.498 35.502 31.1074 35.502 31.9004ZM42.5625 28.6602L42.5918 29.3633C43.0566 28.8164 43.6836 28.543 44.4727 28.543C45.3594 28.543 45.9629 28.8828 46.2832 29.5625C46.4941 29.2578 46.7676 29.0117 47.1035 28.8242C47.4434 28.6367 47.8438 28.543 48.3047 28.543C49.6953 28.543 50.4023 29.2793 50.4258 30.752V35H49.3418V30.8164C49.3418 30.3633 49.2383 30.0254 49.0312 29.8027C48.8242 29.5762 48.4766 29.4629 47.9883 29.4629C47.5859 29.4629 47.252 29.584 46.9863 29.8262C46.7207 30.0645 46.5664 30.3867 46.5234 30.793V35H45.4336V30.8457C45.4336 29.9238 44.9824 29.4629 44.0801 29.4629C43.3691 29.4629 42.8828 29.7656 42.6211 30.3711V35H41.5371V28.6602H42.5625ZM55.7578 33.3184C55.7578 33.0254 55.6465 32.7988 55.4238 32.6387C55.2051 32.4746 54.8203 32.334 54.2695 32.2168C53.7227 32.0996 53.2871 31.959 52.9629 31.7949C52.6426 31.6309 52.4043 31.4355 52.248 31.209C52.0957 30.9824 52.0195 30.7129 52.0195 30.4004C52.0195 29.8809 52.2383 29.4414 52.6758 29.082C53.1172 28.7227 53.6797 28.543 54.3633 28.543C55.082 28.543 55.6641 28.7285 56.1094 29.0996C56.5586 29.4707 56.7832 29.9453 56.7832 30.5234H55.6934C55.6934 30.2266 55.5664 29.9707 55.3125 29.7559C55.0625 29.541 54.7461 29.4336 54.3633 29.4336C53.9688 29.4336 53.6602 29.5195 53.4375 29.6914C53.2148 29.8633 53.1035 30.0879 53.1035 30.3652C53.1035 30.627 53.207 30.8242 53.4141 30.957C53.6211 31.0898 53.9941 31.2168 54.5332 31.3379C55.0762 31.459 55.5156 31.6035 55.8516 31.7715C56.1875 31.9395 56.4355 32.1426 56.5957 32.3809C56.7598 32.6152 56.8418 32.9023 56.8418 33.2422C56.8418 33.8086 56.6152 34.2637 56.1621 34.6074C55.709 34.9473 55.1211 35.1172 54.3984 35.1172C53.8906 35.1172 53.4414 35.0273 53.0508 34.8477C52.6602 34.668 52.3535 34.418 52.1309 34.0977C51.9121 33.7734 51.8027 33.4238 51.8027 33.0488H52.8867C52.9062 33.4121 53.0508 33.7012 53.3203 33.916C53.5938 34.127 53.9531 34.2324 54.3984 34.2324C54.8086 34.2324 55.1367 34.1504 55.3828 33.9863C55.6328 33.8184 55.7578 33.5957 55.7578 33.3184Z" fill="#4F4F4F"/>
</svg>
