<svg width="64" height="64" viewBox="0 0 64 64" fill="none" xmlns="http://www.w3.org/2000/svg">
<rect width="64" height="64" rx="4" fill="#E5E5E5"/>
<g clip-path="url(#clip0)">
<path d="M53.6666 33.0625C54.6556 33.0625 55.6222 32.7601 56.4445 32.1935C57.2667 31.6269 57.9076 30.8216 58.286 29.8795C58.6645 28.9373 58.7635 27.9005 58.5706 26.9003C58.3776 25.9001 57.9014 24.9813 57.2022 24.2602C56.5029 23.5391 55.612 23.048 54.6421 22.8491C53.6722 22.6501 52.6669 22.7522 51.7532 23.1425C50.8396 23.5328 50.0587 24.1937 49.5093 25.0416C48.9599 25.8895 48.6666 26.8864 48.6666 27.9063C48.6666 29.2738 49.1934 30.5853 50.1311 31.5523C51.0688 32.5193 52.3406 33.0625 53.6666 33.0625V33.0625ZM34.4448 28.1694C35.003 27.9946 35.5832 27.9059 36.1666 27.9063C36.8424 27.912 37.5121 28.0389 38.1458 28.2812L39.7448 23.0594C39.8572 22.6948 39.8895 22.309 39.8394 21.9299C39.7893 21.5508 39.658 21.188 39.4551 20.8678C39.2521 20.5475 38.9826 20.2778 38.6661 20.0783C38.3495 19.8788 37.9939 19.7545 37.625 19.7143C36.4239 19.5692 35.3114 20.4061 34.9469 21.5952L32.7698 28.7033L34.4448 28.1694ZM11.7552 50.5003C11.8385 50.4799 11.9156 50.4423 12 50.424V47.6644C12.0027 44.1419 13.0817 40.7099 15.0837 37.8559C17.0856 35.0019 19.9088 32.871 23.1521 31.7659L30.8291 29.321L34.3875 17.7065C34.4993 17.3423 34.5313 16.957 34.481 16.5785C34.4308 16.1999 34.2996 15.8377 34.0969 15.5178C33.8942 15.198 33.6252 14.9286 33.3092 14.7292C32.9932 14.5298 32.6382 14.4052 32.2698 14.3646C31.0687 14.2207 29.9552 15.0575 29.5906 16.2467L26.1062 27.6785C26.0395 27.8959 25.8918 28.077 25.6956 28.1821C25.4993 28.2872 25.2707 28.3075 25.0599 28.2387C24.8491 28.1699 24.6734 28.0176 24.5716 27.8152C24.4697 27.6129 24.4499 27.377 24.5166 27.1597L29.0344 12.358C29.1462 11.9938 29.1782 11.6085 29.1279 11.2299C29.0777 10.8514 28.9464 10.4891 28.7438 10.1693C28.5411 9.84949 28.2721 9.58011 27.9561 9.38067C27.6401 9.18123 27.285 9.05671 26.9166 9.01611C25.7156 8.87217 24.6041 9.70899 24.2385 10.8971L19.2458 27.194C19.1792 27.4114 19.0316 27.5926 18.8355 27.6978C18.6394 27.8029 18.4108 27.8234 18.2 27.7548C17.9892 27.6861 17.8135 27.5339 17.7115 27.3317C17.6095 27.1294 17.5896 26.8937 17.6562 26.6763L21.6729 13.5708C21.7847 13.2066 21.8167 12.8213 21.7664 12.4427C21.7162 12.0642 21.585 11.7019 21.3823 11.3821C21.1797 11.0623 20.9106 10.7929 20.5946 10.5935C20.2786 10.394 19.9236 10.2695 19.5552 10.2289C18.3541 10.0742 17.2416 10.9153 16.8771 12.1045L10.6271 32.4985L10.4125 27.1221C10.4145 26.7834 10.3519 26.4477 10.2281 26.134C10.1043 25.8203 9.92175 25.5349 9.69094 25.294C9.46013 25.053 9.18556 24.8614 8.88291 24.7299C8.58026 24.5985 8.25546 24.5298 7.92706 24.5278C6.54894 24.5225 5.35206 25.6601 5.33331 27.0909V39.2006C5.36613 41.4957 5.97492 43.7428 7.10036 45.7231C8.2258 47.7034 9.8295 49.3493 11.7552 50.5003V50.5003ZM56.0729 45.0938H39.5C39.279 45.0938 39.067 45.0032 38.9107 44.842C38.7544 44.6809 38.6666 44.4623 38.6666 44.2344C38.6666 44.0065 38.7544 43.7879 38.9107 43.6267C39.067 43.4655 39.279 43.375 39.5 43.375H52.8333C53.2038 43.3753 53.5697 43.2906 53.9046 43.1271C54.2395 42.9637 54.535 42.7255 54.7697 42.4298C55.0043 42.1341 55.1723 41.7884 55.2615 41.4175C55.3507 41.0467 55.3589 40.66 55.2854 40.2855C55.0573 39.0609 53.9489 38.2188 52.7396 38.2188H32L36.9052 36.3861C37.219 36.2861 37.5106 36.1233 37.7634 35.9071C38.0162 35.6909 38.2252 35.4254 38.3786 35.1258C38.5319 34.8263 38.6265 34.4985 38.657 34.1613C38.6874 33.824 38.6532 33.4839 38.5562 33.1603C38.4592 32.8366 38.3014 32.5359 38.0917 32.2752C37.882 32.0145 37.6246 31.7989 37.3341 31.6408C37.0436 31.4827 36.7258 31.3852 36.3988 31.3537C36.0717 31.3223 35.7419 31.3576 35.4281 31.4576L24.2073 35.0294C21.6257 35.9047 19.3779 37.5981 17.7844 39.8682C16.191 42.1384 15.3332 44.8694 15.3333 47.6719V50.4272C16.5353 50.6769 17.6687 51.1977 18.6525 51.9524C19.6362 52.707 20.4459 53.6768 21.0234 54.7922C21.6008 55.9075 21.9318 57.1409 21.9926 58.4037C22.0534 59.6665 21.8425 60.9276 21.375 62.0965C23.3166 63.3324 25.5516 63.9911 27.8333 64H49.5C49.8705 64.0003 50.2364 63.9156 50.5713 63.7521C50.9062 63.5887 51.2016 63.3505 51.4363 63.0548C51.671 62.7591 51.839 62.4134 51.9282 62.0425C52.0174 61.6717 52.0255 61.285 51.9521 60.9105C51.7239 59.6859 50.6156 58.8438 49.4062 58.8438H39.5C39.279 58.8438 39.067 58.7532 38.9107 58.592C38.7544 58.4309 38.6666 58.2123 38.6666 57.9844C38.6666 57.7565 38.7544 57.5379 38.9107 57.3767C39.067 57.2155 39.279 57.125 39.5 57.125H52.8333C53.2038 57.1253 53.5697 57.0406 53.9046 56.8771C54.2395 56.7137 54.535 56.4755 54.7697 56.1798C55.0043 55.8841 55.1723 55.5384 55.2615 55.1675C55.3507 54.7967 55.3589 54.41 55.2854 54.0355C55.0573 52.8109 53.9489 51.9688 52.7396 51.9688H39.5C39.279 51.9688 39.067 51.8782 38.9107 51.717C38.7544 51.5559 38.6666 51.3373 38.6666 51.1094C38.6666 50.8815 38.7544 50.6629 38.9107 50.5017C39.067 50.3405 39.279 50.25 39.5 50.25H56.1666C56.5371 50.2503 56.9031 50.1656 57.238 50.0021C57.5728 49.8387 57.8683 49.6005 58.103 49.3048C58.3377 49.0091 58.5057 48.6634 58.5949 48.2925C58.6841 47.9217 58.6922 47.535 58.6187 47.1605C58.3906 45.9359 57.2823 45.0938 56.0729 45.0938ZM45.3333 15.875C45.9926 15.875 46.6371 15.6734 47.1852 15.2957C47.7334 14.918 48.1606 14.3811 48.4129 13.753C48.6652 13.1249 48.7312 12.4337 48.6026 11.7669C48.474 11.1001 48.1565 10.4876 47.6903 10.0068C47.2242 9.52608 46.6302 9.19869 45.9836 9.06605C45.337 8.93342 44.6668 9.00149 44.0577 9.26167C43.4486 9.52184 42.928 9.96243 42.5617 10.5277C42.1955 11.093 42 11.7576 42 12.4375C42 13.3492 42.3512 14.2235 42.9763 14.8682C43.6014 15.5128 44.4493 15.875 45.3333 15.875ZM13.6666 53.6875C12.6777 53.6875 11.711 53.9899 10.8888 54.5565C10.0665 55.1231 9.42569 55.9284 9.04725 56.8705C8.66881 57.8127 8.56979 58.8495 8.76272 59.8497C8.95565 60.8499 9.43185 61.7687 10.1311 62.4898C10.8304 63.2109 11.7213 63.702 12.6912 63.9009C13.6611 64.0999 14.6664 63.9978 15.5801 63.6075C16.4937 63.2172 17.2746 62.5563 17.824 61.7084C18.3734 60.8605 18.6666 59.8636 18.6666 58.8438C18.6666 57.4762 18.1399 56.1647 17.2022 55.1977C16.2645 54.2307 14.9927 53.6875 13.6666 53.6875Z" fill="#C4C4C4"/>
</g>
<defs>
<clipPath id="clip0">
<rect x="2" y="9" width="60" height="55" fill="white"/>
</clipPath>
</defs>
</svg>
